<?xml version="1.0" encoding="UTF-8"?>
<svg width="106px" height="98px" viewBox="0 0 106 98" version="1.1" xmlns="http://www.w3.org/2000/svg" xmlns:xlink="http://www.w3.org/1999/xlink">
    <!-- Generator: Sketch 48.2 (47327) - http://www.bohemiancoding.com/sketch -->
    <title>icon</title>
    <desc>Created with Sketch.</desc>
    <defs>
        <linearGradient x1="183.798758%" y1="177.075939%" x2="-2.22044605e-14%" y2="4.4408921e-14%" id="linearGradient-1">
            <stop stop-color="#3023AE" offset="0%"></stop>
            <stop stop-color="#C86DD7" offset="100%"></stop>
        </linearGradient>
    </defs>
    <g id="Artboard-3" stroke="none" stroke-width="1" fill="none" fill-rule="evenodd" transform="translate(-122.000000, -945.000000)">
        <g id="Features" transform="translate(0.000000, 800.000000)">
            <g id="Content" transform="translate(122.000000, 145.000000)">
                <g id="Box">
                    <g id="icon">
                        <path d="M62.8482003,2.84209479 C69.3720424,8.61627969 88.5878133,27.9456601 96.9733594,60.4786269 C102.563723,82.1672715 96.5885796,94.3270874 79.0479277,96.9580746 C53.5435501,99.9356953 30.8227448,93.8900637 10.8855118,78.8211798 C-19.0203378,56.217854 21.0448596,18.6031401 31.6238165,11.2898359 C42.2027734,3.9765318 54.6973367,-4.54667263 62.8482003,2.84209479 Z" id="Path-2" fill="url(#linearGradient-1)" opacity="0.0500000007"></path>
                        <g id="open-book" transform="translate(28.000000, 20.000000)" fill-rule="nonzero">
                            <path d="M74.2258065,8 L3.77419355,8 C1.69304032,8 0,9.6908141 0,11.7692308 L0,53.2307692 C0,55.3091859 1.69304032,57 3.77419355,57 L74.2258065,57 C76.3069597,57 78,55.3091859 78,53.2307692 L78,11.7692308 C78,9.6908141 76.3069597,8 74.2258065,8 Z" id="Shape" fill="#8E51C7"></path>
                            <rect id="Rectangle-path" fill="#7543A3" x="35" y="51" width="8" height="6"></rect>
                            <path d="M73,46.8571429 L73,50.7142857 C73,51.4243214 72.4361667,52 71.7407407,52 L6.25925926,52 C5.56383333,52 5,51.4243214 5,50.7142857 L5,46.8571429 L12.5210833,43 L42.7433056,44.2857143 L67.9284907,43 L73,46.8571429 Z" id="Shape" fill="#E6BE8A"></path>
                            <path d="M6.76674074,48.2223181 C17.1145463,43.9620214 28.817,44.2213533 39,49 L39,3.78958512 C28.48125,-1.14667007 16.3413611,-1.26048101 5.74784259,3.44799532 C5.29199074,3.65065728 5,4.11076744 5,4.60855295 L5,47.0741619 C5,47.9813528 5.92602778,48.5684603 6.76674074,48.2223181 Z" id="Shape" fill="#F0ECF3"></path>
                            <path d="M39,49 C49.183,44.2211964 60.8854537,43.9620214 71.2332593,48.2223181 C72.0739722,48.5684603 73,47.9813528 73,47.0741619 L73,4.60855295 C73,4.11076744 72.7080093,3.65065728 72.2521574,3.44799532 C61.6586389,-1.26048101 49.5185926,-1.14667007 39,3.78958512 L39,49 Z" id="Shape" fill="#F0ECF3"></path>
                            <path d="M44.2001259,42 C43.6892375,42 43.2156982,41.6069883 43.0552018,40.9932219 C42.8572063,40.2361176 43.2086483,39.4292581 43.840284,39.1914393 C45.0543565,38.734662 46.3035282,38.3445243 47.5538999,38.0309052 C48.2008352,37.8681682 48.8383208,38.364103 48.9742177,39.1424027 C49.1101146,39.9190857 48.695374,40.680501 48.0460387,40.843238 C46.8718653,41.1379968 45.6988919,41.5049633 44.5598177,41.9335401 C44.4402704,41.9782658 44.3184732,42 44.2001259,42 Z" id="Shape" fill="#A89EB1"></path>
                            <path d="M68.7140864,41 C68.5872852,41 68.456627,40.982505 68.3287009,40.9463583 C63.4773116,39.5756759 58.4486579,39.0622483 53.3875405,39.4248719 C52.6693221,39.4711396 52.0603873,38.9996422 52.0039777,38.3630267 C51.948693,37.7259775 52.4761472,37.1690293 53.1842408,37.1182794 C58.5855838,36.7364257 63.9343743,37.2797828 69.0996326,38.7392415 C69.7763875,38.9306743 70.1530946,39.5801581 69.9407951,40.1895912 C69.7686733,40.6837888 69.2614688,41 68.7140864,41 Z" id="Shape" fill="#A89EB1"></path>
                            <path d="M67.7616995,36 C67.6395934,36 67.5137731,35.9825383 67.3905836,35.9464603 C59.9379321,33.7637434 52.0620102,33.7637434 44.6093587,35.9464603 C43.9541023,36.1375292 43.260001,35.7988293 43.0569551,35.191132 C42.8526711,34.5828576 43.2152752,33.9346087 43.8669721,33.7435398 C51.8057267,31.4188201 60.1942156,31.4188201 68.1329702,33.7435398 C68.7846671,33.9346087 69.147426,34.5828576 68.9429872,35.191132 C68.7772386,35.68439 68.2888142,36 67.7616995,36 Z" id="Shape" fill="#A89EB1"></path>
                            <path d="M44.2309109,31 C43.7069174,31 43.2212312,30.6835596 43.0566178,30.1893746 C42.8535434,29.5797786 43.2140005,28.9301213 43.8618386,28.7386373 C48.391782,27.4020094 53.0924926,26.8330531 57.827972,27.0421814 C58.5058097,27.0726973 59.0310339,27.6144641 58.9985728,28.2528406 C58.9673424,28.8923741 58.3999648,29.3804848 57.7101273,29.3538737 C53.2666443,29.1567493 48.852084,29.6911402 44.5996755,30.9464886 C44.4772155,30.9825003 44.352294,31 44.2309109,31 Z" id="Shape" fill="#A89EB1"></path>
                            <path d="M68.6665239,31 C68.5350491,31 68.3995751,30.9796797 68.266934,30.9376956 C66.5824241,30.4043294 64.8444246,29.9765953 63.1012594,29.6670884 C62.3760654,29.5377774 61.891825,28.841177 62.0208003,28.1103175 C62.1484424,27.3801299 62.8409761,26.8914348 63.564837,27.0207459 C65.4213138,27.350741 67.2711252,27.8060167 69.0664471,28.3741457 C69.7681456,28.5964936 70.1587373,29.3508641 69.9386129,30.0587162 C69.7599805,30.632723 69.2340815,31 68.6665239,31 Z" id="Shape" fill="#A89EB1"></path>
                            <path d="M67.7616995,26 C67.6395934,26 67.5137731,25.9825383 67.3905836,25.9464603 C59.9379321,23.7637434 52.0620102,23.7637434 44.6093587,25.9464603 C43.9541023,26.1363747 43.260001,25.798252 43.0569551,25.191132 C42.8526711,24.5828576 43.2152752,23.9346087 43.8669721,23.7435398 C51.8057267,21.4188201 60.1942156,21.4188201 68.1329702,23.7435398 C68.7846671,23.9346087 69.147426,24.5828576 68.9429872,25.191132 C68.7772386,25.68439 68.2888142,26 67.7616995,26 Z" id="Shape" fill="#A89EB1"></path>
                            <path d="M44.2499658,21 C43.7178608,21 43.2246559,20.6648818 43.0574943,20.1415276 C42.8512762,19.4959503 43.2173133,18.8079471 43.8751801,18.6051607 C46.3894782,17.8309274 48.9915751,17.2937887 51.6119505,17.0089076 C52.307624,16.926966 52.9167484,17.4199941 52.9923617,18.0911495 C53.067975,18.7636833 52.5736766,19.3697449 51.8878453,19.4438752 C49.4285387,19.7119085 46.9837611,20.2162706 44.6245953,20.9431769 C44.5000834,20.9813142 44.373228,21 44.2499658,21 Z" id="Shape" fill="#A89EB1"></path>
                            <path d="M67.7269703,21 C67.6014396,21 67.4720905,20.9824902 67.3454461,20.9463129 C63.7519909,19.9191679 60.0205952,19.3708653 56.2530835,19.3171782 C55.5495389,19.3070486 54.9890261,18.7807417 55.0001631,18.141417 C55.0113002,17.5026712 55.6254301,16.9644981 56.2928588,17.0018331 C60.3052269,17.0594273 64.2814791,17.6434731 68.1086536,18.7371843 C68.7786279,18.9287791 69.1515607,19.5788122 68.9413882,20.1887609 C68.7697183,20.6833766 68.2688683,21 67.7269703,21 Z" id="Shape" fill="#A89EB1"></path>
                            <path d="M44.266806,16 C43.7275322,16 43.2276826,15.6838407 43.0582689,15.1900946 C42.8492726,14.5810399 43.2202411,13.9319596 43.886971,13.7406456 C49.406216,12.1585485 55.1184659,11.6504972 60.8728317,12.2346984 C61.5680612,12.3046349 62.069019,12.8764094 61.9922287,13.5108955 C61.9155967,14.1448036 61.3020658,14.6144187 60.5932199,14.531911 C55.1950978,13.985568 49.8280086,14.4602405 44.6463244,15.9463916 C44.5202933,15.9825159 44.3917289,16 44.266806,16 Z" id="Shape" fill="#A89EB1"></path>
                            <path d="M67.7499387,16 C67.6266729,16 67.4996575,15.9822589 67.3752981,15.9456039 C66.5819598,15.7113047 65.7678429,15.4988519 64.953726,15.3127908 C64.2836536,15.1592794 63.8722988,14.5247069 64.0358721,13.8952661 C64.1994454,13.2658253 64.8707676,12.8809471 65.546933,13.0332855 C66.4122935,13.2315161 67.2789039,13.4581911 68.1247355,13.7074455 C68.782622,13.9015707 69.1488262,14.560189 68.9424457,15.1781934 C68.7751229,15.6793415 68.2820596,16 67.7499387,16 Z" id="Shape" fill="#A89EB1"></path>
                            <path d="M44.2503424,11 C43.7180734,11 43.2247167,10.6787492 43.0575036,10.1775921 C42.851222,9.55899009 43.2173718,8.90094649 43.8766915,8.70740425 C44.736198,8.45418649 45.6030495,8.22794735 46.453961,8.03381862 C47.1206255,7.87971795 47.8005733,8.26694904 47.9641921,8.89640118 C48.1278109,9.52585331 47.7150915,10.1604372 47.0448326,10.3133649 C46.2464292,10.4954706 45.4320858,10.7079272 44.6238371,10.9456029 C44.4992868,10.982112 44.3736425,11 44.2503424,11 Z" id="Shape" fill="#A89EB1"></path>
                            <path d="M67.7332952,10 C67.6083726,10 67.47965,9.98251587 67.3536191,9.94639163 C62.1708345,8.46024046 56.8061283,7.98614596 51.4067479,8.53191095 C50.7066112,8.60979481 50.0843731,8.14408113 50.0077412,7.51089548 C49.9311093,6.87640936 50.4320664,6.30463491 51.1271365,6.23469839 C56.8789603,5.6504972 62.5924681,6.15854849 68.1129713,7.74064563 C68.7797002,7.9319596 69.1508265,8.58103992 68.9416722,9.19009458 C68.7722587,9.68384067 68.2725682,10 67.7332952,10 Z" id="Shape" fill="#A89EB1"></path>
                            <path d="M10.2001259,42 C9.68923746,42 9.21584819,41.6069883 9.05520183,40.9932219 C8.85720631,40.2361176 9.20864835,39.4292581 9.84028404,39.1914393 C11.0543565,38.734662 12.3035282,38.3445243 13.5538999,38.0309052 C14.2018852,37.8681682 14.8383208,38.364103 14.9742177,39.1424027 C15.1101146,39.9190857 14.695374,40.680501 14.0460387,40.843238 C12.8718653,41.1379968 11.6988919,41.5049633 10.5598177,41.9335401 C10.4402704,41.9782658 10.3184732,42 10.2001259,42 Z" id="Shape" fill="#DDD4E4"></path>
                            <path d="M34.7140864,41 C34.5872852,41 34.456627,40.982505 34.3287009,40.9463583 C29.4784366,39.5756759 24.4486579,39.0622483 19.3875405,39.4248719 C18.659358,39.4711396 18.0603873,38.9996422 18.0039777,38.3630267 C17.948693,37.7259775 18.4761472,37.1690293 19.1842408,37.1182794 C24.5855838,36.7364257 29.9330886,37.2797828 35.0996326,38.7392415 C35.7763875,38.9306743 36.1530946,39.5801581 35.9407951,40.1895912 C35.7686733,40.6837888 35.2614688,41 34.7140864,41 Z" id="Shape" fill="#DDD4E4"></path>
                            <path d="M33.7616995,36 C33.6395934,36 33.5137731,35.9825383 33.3905836,35.9464603 C25.9379321,33.7637434 18.0620102,33.7637434 10.6093587,35.9464603 C9.95162612,36.1375292 9.26000099,35.7988293 9.05695508,35.191132 C8.85267108,34.5828576 9.21527517,33.9346087 9.86697207,33.7435398 C17.8057267,31.4188201 26.1942156,31.4188201 34.1329702,33.7435398 C34.7846671,33.9346087 35.147426,34.5828576 34.9429872,35.191132 C34.7772386,35.68439 34.2888142,36 33.7616995,36 Z" id="Shape" fill="#DDD4E4"></path>
                            <path d="M10.2309109,31 C9.70691741,31 9.22138501,30.6835596 9.05661783,30.1893746 C8.85354345,29.5797786 9.21400049,28.9301213 9.86183856,28.7386373 C14.391782,27.4020094 19.096031,26.8330531 23.827972,27.0421814 C24.5058097,27.0726973 25.0310339,27.6144641 24.9985728,28.2528406 C24.9661116,28.8923741 24.3927342,29.3804848 23.7101273,29.3538737 C19.2654135,29.1567493 14.852084,29.6911402 10.5996755,30.9464886 C10.4772155,30.9825003 10.352294,31 10.2309109,31 Z" id="Shape" fill="#DDD4E4"></path>
                            <path d="M34.6665239,31 C34.5350491,31 34.3995751,30.9796797 34.266934,30.9376956 C32.5824241,30.4043294 30.8444246,29.9765953 29.1012594,29.6670884 C28.3760654,29.5377774 27.891825,28.841177 28.0208003,28.1103175 C28.1471093,27.3801299 28.8423091,26.8914348 29.564837,27.0207459 C31.4213138,27.350741 33.2711252,27.8060167 35.0664471,28.3741457 C35.7681456,28.5964936 36.1587373,29.3508641 35.9386129,30.0587162 C35.7599805,30.632723 35.2340815,31 34.6665239,31 Z" id="Shape" fill="#DDD4E4"></path>
                            <path d="M10.2632891,26 C9.72551235,26 9.22720838,25.6835238 9.05810712,25.1892829 C8.84969101,24.5796179 9.21962961,23.9298871 9.88450858,23.7383815 C17.0649172,21.6733311 24.7262619,21.4433507 32.034878,23.0738972 C32.7133356,23.2253371 33.1290626,23.8513467 32.9637507,24.4722937 C32.7984389,25.0926622 32.1114552,25.4706112 31.4378922,25.3226426 C24.5745286,23.7897293 17.3830676,24.0072705 10.6419117,25.9464825 C10.5160725,25.9824983 10.3878651,26 10.2632891,26 Z" id="Shape" fill="#DDD4E4"></path>
                            <path d="M10.2499658,21 C9.71786076,21 9.22481213,20.6648818 9.0574943,20.1415276 C8.85127624,19.4959503 9.21731329,18.8079471 9.87518015,18.6051607 C12.3894782,17.8309274 14.9915751,17.2937887 17.6119505,17.0089076 C18.3015312,16.926966 18.9167484,17.4199941 18.9923617,18.0911495 C19.067975,18.7636833 18.5736766,19.3697449 17.8878453,19.4438752 C15.4285387,19.7119085 12.9837611,20.2162706 10.6245953,20.9431769 C10.5000834,20.9813142 10.373228,21 10.2499658,21 Z" id="Shape" fill="#DDD4E4"></path>
                            <path d="M30.7783949,21 C30.6829043,21 30.5849691,20.9872329 30.488409,20.9608362 C27.7789203,20.215516 24.9905946,19.8118009 22.2033383,19.7626305 C21.5277232,19.7505536 20.9894617,19.1230699 21.0001567,18.360842 C21.0108516,17.5993042 21.5384181,16.9576733 22.2415346,17.0021855 C25.2112161,17.0554965 28.1798281,17.4847458 31.066089,18.2785462 C31.722606,18.4591829 32.1248889,19.2058832 31.964923,19.9465452 C31.8286388,20.5774794 31.3285736,21 30.7783949,21 Z" id="Shape" fill="#DDD4E4"></path>
                            <path d="M10.266806,16 C9.72753216,16 9.22784092,15.6838407 9.05826889,15.1900946 C8.84927256,14.5810399 9.22024105,13.9319596 9.88697104,13.7406456 C15.4074826,12.1585485 21.1197325,11.6504972 26.8728317,12.2346984 C27.5680612,12.3046349 28.069019,12.8764094 27.9922287,13.5108955 C27.9155967,14.1448036 27.2969992,14.6144187 26.5932199,14.531911 C21.1950978,13.985568 15.8280086,14.4602405 10.6463244,15.9463916 C10.5202933,15.9825159 10.3917289,16 10.266806,16 Z" id="Shape" fill="#DDD4E4"></path>
                            <path d="M10.2503424,11 C9.71807344,11 9.22487295,10.6787492 9.05750358,10.1775921 C8.85122201,9.55899009 9.2173718,8.90094649 9.87669147,8.70740425 C10.736198,8.45418649 11.6030495,8.22794735 12.453961,8.03381862 C13.1193753,7.87971795 13.8005733,8.26694904 13.9641921,8.89640118 C14.1278109,9.52585331 13.7150915,10.1604372 13.0448326,10.3133649 C12.2464292,10.4954706 11.4320858,10.7079272 10.6238371,10.9456029 C10.4992868,10.982112 10.3736425,11 10.2503424,11 Z" id="Shape" fill="#DDD4E4"></path>
                            <path d="M30.7701169,10 C30.6739672,10 30.5753561,9.98724667 30.4781295,9.96087829 C26.1766224,8.78739947 21.7657353,8.47166835 17.3668477,9.0176488 C16.6913383,9.11054131 16.08198,8.55646077 16.0075216,7.799878 C15.9330633,7.04312289 16.4198116,6.36116435 17.0951671,6.27775067 C21.7788117,5.69333788 26.4793786,6.0326799 31.0596429,7.28147232 C31.7206914,7.46191472 32.1257509,8.20781226 31.9646809,8.94767782 C31.8276099,9.57776133 31.3240931,10 30.7701169,10 Z" id="Shape" fill="#DDD4E4"></path>
                            <path d="M31.003665,23.3784045 C31.0038316,23.8739395 31.5968931,24.1696471 32.0396902,23.8947291 L35.0018325,22.055633 L37.9639749,23.8947291 C38.4067719,24.1696471 39,23.8740947 39,23.3784045 L39,4.24429632 C39,3.75403619 38.6929741,3.30147644 38.2118612,3.10226948 C36.1366457,2.2427628 34.0039566,1.55345085 31.8377827,1.02052568 C31.4151431,0.91657812 30.9998335,1.22097381 31.0000001,1.62807589 L31.003665,23.3784045 Z" id="Shape" fill="#FFDC64"></path>
                        </g>
                    </g>
                </g>
            </g>
        </g>
    </g>
</svg>