<?xml version="1.0" encoding="UTF-8"?>
<svg width="111px" height="98px" viewBox="0 0 111 98" version="1.1" xmlns="http://www.w3.org/2000/svg" xmlns:xlink="http://www.w3.org/1999/xlink">
    <!-- Generator: Sketch 48.2 (47327) - http://www.bohemiancoding.com/sketch -->
    <title>bookshelf</title>
    <desc>Created with Sketch.</desc>
    <defs>
        <linearGradient x1="183.798758%" y1="177.075939%" x2="-2.22044605e-14%" y2="4.4408921e-14%" id="linearGradient-1">
            <stop stop-color="#3023AE" offset="0%"></stop>
            <stop stop-color="#C86DD7" offset="100%"></stop>
        </linearGradient>
    </defs>
    <g id="Artboard-3" stroke="none" stroke-width="1" fill="none" fill-rule="evenodd" transform="translate(-530.000000, -945.000000)">
        <g id="Features" transform="translate(0.000000, 800.000000)">
            <g id="Content" transform="translate(122.000000, 145.000000)">
                <g id="Box" transform="translate(408.000000, 0.000000)">
                    <g id="bookshelf">
                        <path d="M62.8482003,2.84209479 C69.3720424,8.61627969 88.5878133,27.9456601 96.9733594,60.4786269 C102.563723,82.1672715 96.5885796,94.3270874 79.0479277,96.9580746 C53.5435501,99.9356953 30.8227448,93.8900637 10.8855118,78.8211798 C-19.0203378,56.217854 21.0448596,18.6031401 31.6238165,11.2898359 C42.2027734,3.9765318 54.6973367,-4.54667263 62.8482003,2.84209479 Z" id="Path" fill="url(#linearGradient-1)" opacity="0.0500000007"></path>
                        <g transform="translate(23.000000, 10.000000)" fill-rule="nonzero">
                            <path d="M72.5714286,10 L65.4285714,10 C64.6396429,10 64,10.6076607 64,11.3571429 L64,48 L74,48 L74,11.3571429 C74,10.6076607 73.3603571,10 72.5714286,10 Z" id="Shape" fill="#A362E0"></path>
                            <path d="M69,10 L65.4285714,10 C64.6396429,10 64,10.6076607 64,11.3571429 L64,48 L69,48 L69,10 Z" id="Shape" fill="#8E51C7"></path>
                            <path d="M28.629689,4 L20.370311,4 C19.6135567,4 19,4.61565625 19,5.375 L19,48 L30,48 L30,5.375 C30,4.61565625 29.3864433,4 28.629689,4 Z" id="Shape" fill="#8E51C7"></path>
                            <path d="M29.5101958,4 L25,4 L25,48 L31,48 L31,5.375 C31,4.61565625 30.3329402,4 29.5101958,4 Z" id="Shape" fill="#A362E0"></path>
                            <path d="M13.5715041,67 C13.0399251,67 12.5392373,66.722 12.2937146,66.263 L5.15123532,52.9296667 C4.79821828,52.2708333 5.08427458,51.47 5.79013009,51.1406667 C6.49455711,50.8125 7.35397593,51.0781667 7.70681441,51.737 L12.1430083,60.0188333 L12.1430083,52.3333333 C12.1430083,51.597 12.7819031,51 13.5715041,51 C14.3611052,51 15,51.597 15,52.3333333 L15,65.6666667 C15,66.2851667 14.5437741,66.8223333 13.8993439,66.9641667 C13.7905997,66.9883333 13.6802484,67 13.5715041,67 Z" id="Shape" fill="#868491"></path>
                            <path d="M74.4284959,67 C74.3197516,67 74.2094003,66.9883333 74.1006561,66.9641667 C73.4562259,66.8221667 73,66.2851667 73,65.6666667 L73,52.3333333 C73,51.597 73.6388948,51 74.4284959,51 C75.2180969,51 75.8569917,51.597 75.8569917,52.3333333 L75.8569917,60.0188333 L80.2931856,51.737 C80.6474526,51.0781667 81.5040144,50.8125 82.2098699,51.1406667 C82.9157254,51.4701667 83.2017817,52.2708333 82.8487647,52.9296667 L75.7062854,66.263 C75.4607627,66.722 74.9598963,67 74.4284959,67 Z" id="Shape" fill="#868491"></path>
                            <path d="M41.75,4 L39.25,4 C38.5596875,4 38,4.61565625 38,5.375 L38,48 L43,48 L43,5.375 C43,4.61565625 42.4403125,4 41.75,4 Z" id="Shape" fill="#5D647F"></path>
                            <path d="M62.75,4 L60.25,4 C59.5596875,4 59,4.61565625 59,5.375 L59,48 L64,48 L64,5.375 C64,4.61565625 63.4403125,4 62.75,4 Z" id="Shape" fill="#4BB9EC"></path>
                            <path d="M17.75,8 L15.25,8 C14.5596875,8 14,8.61758621 14,9.37931034 L14,47.8491379 C14,47.9324138 14.06125,48 14.1367188,48 L19,48 L19,9.37931034 C19,8.61758621 18.4403125,8 17.75,8 Z" id="Shape" fill="#FFEA92"></path>
                            <path d="M12.6,12 L8.4,12 C7.62685,12 7,12.6027404 7,13.3461538 L7,47 L14,47 L14,13.3461538 C14,12.6027404 13.37315,12 12.6,12 Z" id="Shape" fill="#9F5BDF"></path>
                            <path d="M79.6,7 L75.4,7 C74.62685,7 74,7.611925 74,8.36666667 L74,48 L81,48 L81,8.36666667 C81,7.611925 80.37315,7 79.6,7 Z" id="Shape" fill="#5D647F"></path>
                            <path d="M57.5714286,0 L50.4285714,0 C49.6396429,0 49,0.614057143 49,1.37142857 L49,48 L59,48 L59,1.37142857 C59,0.614057143 58.3603571,0 57.5714286,0 Z" id="Shape" fill="#FFEA92"></path>
                            <path d="M47.75,10 L45.25,10 C44.5596875,10 44,10.6076607 44,11.3571429 L44,48 L49,48 L49,11.3571429 C49,10.6076607 48.4403125,10 47.75,10 Z" id="Shape" fill="#9F5BDF"></path>
                            <path d="M36.6666667,7 L31.3333333,7 C30.597,7 30,7.611925 30,8.36666667 L30,48 L38,48 L38,8.36666667 C38,7.611925 37.403,7 36.6666667,7 Z" id="Shape" fill="#4BB9EC"></path>
                            <path d="M86.6261753,53 L1.37382474,53 C0.615130025,53 0,52.4403125 0,51.75 L0,49.25 C0,48.5596875 0.615130025,48 1.37382474,48 L86.6261753,48 C87.38487,48 88,48.5596875 88,49.25 L88,51.75 C88,52.4403125 87.38487,53 86.6261753,53 Z" id="Shape" fill="#E6BE8A"></path>
                            <rect id="Rectangle-path" fill="#5D647F" x="19" y="8" width="5" height="3"></rect>
                            <rect id="Rectangle-path" fill="#868491" x="25" y="8" width="5" height="3"></rect>
                            <rect id="Rectangle-path" fill="#5D647F" x="19" y="41" width="5" height="3"></rect>
                            <rect id="Rectangle-path" fill="#868491" x="25" y="41" width="5" height="3"></rect>
                            <rect id="Rectangle-path" fill="#00A077" x="47" y="14" width="3" height="3"></rect>
                            <rect id="Rectangle-path" fill="#00A077" x="47" y="40" width="3" height="3"></rect>
                            <rect id="Rectangle-path" fill="#FF9100" x="64" y="14" width="5" height="3"></rect>
                            <rect id="Rectangle-path" fill="#FF9100" x="64" y="40" width="5" height="3"></rect>
                            <rect id="Rectangle-path" fill="#FFCD00" x="69" y="14" width="5" height="3"></rect>
                            <rect id="Rectangle-path" fill="#FFCD00" x="69" y="40" width="5" height="3"></rect>
                            <path d="M30,8.36666667 L30,48 L34,48 L34,7 L31.3333333,7 C30.597,7 30,7.611925 30,8.36666667 Z" id="Shape" fill="#A4D3ED"></path>
                            <path d="M14,48 L17,48 L17,8 L15.5,8 C14.671625,8 14,8.61758621 14,9.37931034 L14,48 Z" id="Shape" fill="#FFE165"></path>
                            <path d="M7,47 L10,47 L10,12 L8.0497,12 C7.46995,12 7,12.5271875 7,13.1775481 L7,47 Z" id="Shape" fill="#8E51C7"></path>
                            <path d="M38,48 L41,48 L41,4 L39.5,4 C38.671625,4 38,4.61565625 38,5.375 L38,48 Z" id="Shape" fill="#5C546A"></path>
                            <path d="M44,48 L47,48 L47,10 L45.5,10 C44.671625,10 44,10.6076607 44,11.3571429 L44,48 Z" id="Shape" fill="#8E51C7"></path>
                            <rect id="Rectangle-path" fill="#5D647F" x="44" y="14" width="3" height="3"></rect>
                            <rect id="Rectangle-path" fill="#5D647F" x="44" y="40" width="3" height="3"></rect>
                            <path d="M49,48 L54,48 L54,0 L50.4285714,0 C49.6396429,0 49,0.614057143 49,1.37142857 L49,48 Z" id="Shape" fill="#FFE165"></path>
                            <path d="M62,4 L60.5,4 C59.671625,4 59,4.61565625 59,5.375 L59,48 L62,48 L62,4 Z" id="Shape" fill="#A4D3ED"></path>
                            <path d="M77,7 L75.1869436,7 C74.531454,7 74,7.611925 74,8.36666667 L74,48 L77,48 L77,7 Z" id="Shape" fill="#5C546A"></path>
                            <path d="M0,51 L0,52.5 C0,53.328375 0.615130025,54 1.37382474,54 L86.6261753,54 C87.38487,54 88,53.328375 88,52.5 L88,51 L0,51 Z" id="Shape" fill="#C9A07C"></path>
                        </g>
                    </g>
                </g>
            </g>
        </g>
    </g>
</svg>