<?xml version="1.0" encoding="UTF-8"?>
<svg width="109px" height="98px" viewBox="0 0 109 98" version="1.1" xmlns="http://www.w3.org/2000/svg" xmlns:xlink="http://www.w3.org/1999/xlink">
    <!-- Generator: Sketch 48.2 (47327) - http://www.bohemiancoding.com/sketch -->
    <title>family</title>
    <desc>Created with Sketch.</desc>
    <defs>
        <linearGradient x1="183.798758%" y1="177.075939%" x2="-2.22044605e-14%" y2="4.4408921e-14%" id="linearGradient-1">
            <stop stop-color="#3023AE" offset="0%"></stop>
            <stop stop-color="#C86DD7" offset="100%"></stop>
        </linearGradient>
    </defs>
    <g id="Artboard-3" stroke="none" stroke-width="1" fill="none" fill-rule="evenodd" transform="translate(-930.000000, -945.000000)">
        <g id="Features" transform="translate(0.000000, 800.000000)">
            <g id="Content" transform="translate(122.000000, 145.000000)">
                <g id="Box" transform="translate(808.000000, 0.000000)">
                    <g id="family">
                        <path d="M62.8482003,2.84209479 C69.3720424,8.61627969 88.5878133,27.9456601 96.9733594,60.4786269 C102.563723,82.1672715 96.5885796,94.3270874 79.0479277,96.9580746 C53.5435501,99.9356953 30.8227448,93.8900637 10.8855118,78.8211798 C-19.0203378,56.217854 21.0448596,18.6031401 31.6238165,11.2898359 C42.2027734,3.9765318 54.6973367,-4.54667263 62.8482003,2.84209479 Z" id="Path" fill="url(#linearGradient-1)" opacity="0.0500000007"></path>
                        <g transform="translate(26.000000, 0.000000)" fill-rule="nonzero">
                            <path d="M63.4998348,6 C72.3594462,6 79.5415978,13.132645 79.5415978,21.9310232 C79.5415978,32.0689768 81,42.2069305 81,42.2069305 C81,42.2069305 73.7083196,46.5518147 63.5,48 C53.2916804,46.5516506 46,42.2069305 46,42.2069305 C46,42.2069305 47.4584022,32.0689768 47.4584022,21.9310232 C47.4580718,13.132645 54.6402234,6 63.4998348,6 Z" id="Shape" fill="#D59F63"></path>
                            <path d="M57.7329147,20.4828378 L57.7329147,16.1379537 C57.7329147,11.2147469 61.2876284,7.11448092 66,6.1953992 C65.2148263,6.07940656 64.4175244,6 63.5994551,6 L63.5992889,6 C54.6894111,6 47.4666766,13.132645 47.4666766,21.9310232 C47.4666766,32.0689768 46,42.2069305 46,42.2069305 C46,42.2069305 53.3330509,46.5518147 63.5992889,48 L63.5992889,26.2760714 L57.7329147,20.4828378 Z" id="Shape" fill="#CD915A"></path>
                            <path d="M80.3058655,52.8737409 L70.510175,48.9241466 C69.4254331,48.4868072 68.7141932,47.4277966 68.7141932,46.2501937 L68.7141932,41 L57.2856449,41 L57.2856449,46.2501937 C57.2856449,47.4277966 56.5744051,48.4868072 55.4896632,48.9241466 L45.6939727,52.8737409 C44.0669407,53.5298316 43,55.1183475 43,56.8846703 L43,62.5999347 C43,63.3951715 43.6395495,64.0400065 44.4286292,64.0400065 L44.4286292,77 L80.1427416,77 C80.9316595,77 81.5713708,76.3553281 81.5713708,75.5599282 L81.5713708,64.0398434 C82.3602887,64.0398434 83,63.3951715 83,62.5997716 L83,56.8845072 C82.9998382,55.1181844 81.9328975,53.5296684 80.3058655,52.8737409 Z" id="Shape" fill="#FAD7A5"></path>
                            <g id="Group" transform="translate(58.000000, 41.000000)" fill="#F0C891">
                                <path d="M24.8629139,21.6089593 L24.8629139,25.9229321 L23.4013245,25.9229321 C22.5942053,25.9229321 21.9397351,26.5666968 21.9397351,27.3609774 L21.9397351,35.9889231 L17.5551325,35.9889231 L17.5551325,21.6091222 L24.8629139,21.6091222 L24.8629139,21.6089593 Z" id="Shape"></path>
                                <path d="M0.0170529801,4.69286878 C1.83162252,5.39315837 3.79917219,5.79143891 5.86307947,5.79143891 C7.92698675,5.79143891 9.89453642,5.39315837 11.709106,4.69286878 L11.709106,0.0395837104 L0.0168874172,0.0395837104 L0.0168874172,4.69286878 L0.0170529801,4.69286878 Z" id="Shape"></path>
                            </g>
                            <path d="M63.9999182,43 C56.8202483,43 51,37.1690541 51,29.9761881 L51,25.514867 C51,24.803744 51.5232824,24.2047484 52.224592,24.0955718 C55.5410046,23.5793602 57.1471771,21.018629 57.8165793,19.5121238 C58.0420587,19.0046003 58.6707175,18.8400159 59.1133313,19.1745944 C65.2330189,23.8000083 77,20.3389804 77,29.976352 C76.9998364,37.1688902 71.179588,43 63.9999182,43 Z" id="Shape" fill="#FFE1B4"></path>
                            <path d="M58.3913335,30.9158581 L58.3913335,20 C58.2185151,20.0858025 58.063615,20.2103067 57.976201,20.4033212 C57.2911237,21.9168051 55.6473399,24.4893982 52.2532679,25.0080011 C51.5353685,25.1176834 51,25.7196185 51,26.4338709 L51,30.9158581 C51,38.1420435 56.9565393,44 64.3043333,44 C65.5882463,44 66.8254381,43.8114321 68,43.477774 C62.4523971,41.901544 58.3913335,36.8795444 58.3913335,30.9158581 Z" id="Shape" fill="#FAD098"></path>
                            <path d="M63.500085,37 C61.9122028,37 60.3946666,36.3340196 59.3355687,35.1730477 C58.8125617,34.6007184 58.9123034,33.7614834 59.5552725,33.2973061 C60.2013001,32.833733 61.144514,32.9222484 61.6646325,33.4932182 C62.6549136,34.5765504 64.3452563,34.5765504 65.3353675,33.4932182 C65.8553161,32.9222484 66.8002291,32.833733 67.4447275,33.2973061 C68.0876966,33.7614834 68.1874383,34.6007184 67.6644313,35.1730477 C66.6055033,36.3340196 65.0879671,37 63.500085,37 Z" id="Shape" fill="#D7AF7D"></path>
                            <g id="Group" transform="translate(56.000000, 26.000000)" fill="#64463C">
                                <path d="M13.4366292,4.90142857 C12.6143258,4.90142857 11.948764,4.19553571 11.948764,3.325 L11.948764,1.74857143 C11.948764,0.878035714 12.6141573,0.172142857 13.4366292,0.172142857 C14.2589326,0.172142857 14.9244944,0.878035714 14.9244944,1.74857143 L14.9244944,3.325 C14.9244944,4.19571429 14.2589326,4.90142857 13.4366292,4.90142857 Z" id="Shape"></path>
                                <path d="M1.53421348,4.90142857 C0.711910112,4.90142857 0.0463483146,4.19553571 0.0463483146,3.325 L0.0463483146,1.74857143 C0.0463483146,0.878035714 0.711741573,0.172142857 1.53421348,0.172142857 C2.35668539,0.172142857 3.02207865,0.878035714 3.02207865,1.74857143 L3.02207865,3.325 C3.02207865,4.19571429 2.35668539,4.90142857 1.53421348,4.90142857 Z" id="Shape"></path>
                            </g>
                            <path d="M80.3058546,52.4955143 L74.212147,50 C73.1863068,55.3838625 68.5589405,59.4490556 62.9999191,59.4490556 C57.4408977,59.4490556 52.8135314,55.3838625 51.7876912,50 L45.6939836,52.4955143 C44.066945,53.1618905 43,54.7753096 43,56.5693229 L43,77 L50.1428514,77 L75.8571486,77 L75.8571486,63.8368331 L81.571365,63.8368331 C82.3602861,63.8368331 83,63.1820547 83,62.3741854 L83,56.5694886 C82.9998382,54.7751439 81.9328932,53.1617248 80.3058546,52.4955143 Z" id="Shape" fill="#8E51C7"></path>
                            <g id="Group" transform="translate(49.000000, 50.000000)" fill="#7F43B8">
                                <path d="M25.2082476,0.1596 C24.1819333,5.51171765 19.5524286,9.55294118 13.9908381,9.55294118 C8.42924762,9.55294118 3.79974286,5.51171765 2.77342857,0.1596 L0.0900190476,1.25143529 C1.57193333,7.67364706 7.22564762,12.4608235 13.9908381,12.4608235 C20.7560286,12.4608235 26.4097429,7.67364706 27.8916571,1.25143529 L25.2082476,0.1596 Z" id="Shape"></path>
                                <path d="M26.8538476,12.2114588 C26.8538476,11.4403059 27.1549905,10.7006118 27.6910571,10.1552706 L33.3497905,4.39863529 C33.7608667,5.07409412 34,5.86023529 34,6.69018824 L34,12.4608235 C34,13.2637647 33.3601524,13.9148471 32.5707048,13.9148471 L26.8538476,13.9148471 L26.8538476,12.2114588 Z" id="Shape"></path>
                            </g>
                            <path d="M10,77 L2.50005664,77 C1.67169505,77 1,76.3456897 1,75.5383979 L1,58 L10,58 L10,77 Z" id="Shape" fill="#B48764"></path>
                            <g id="Group" transform="translate(1.000000, 58.000000)" fill="#966D50">
                                <path d="M0.136887097,2.94549565 L0.136887097,5.8624087 L3.05565726,5.8624087 C3.86160484,5.8624087 4.515125,6.51534783 4.515125,7.32094783 L4.515125,18.9887652 L8.8933629,18.9887652 L8.8933629,2.94566087 L0.136887097,2.94566087 L0.136887097,2.94549565 Z" id="Shape"></path>
                                <rect id="Rectangle-path" x="32.2428629" y="0.0282521739" width="8.75647581" height="18.9603478"></rect>
                            </g>
                            <path d="M39.8313585,42.5035074 L27.2332684,39 L15.7665692,39 L3.16847916,42.5035074 C1.29781972,43.0238761 0,44.7563416 0,46.7336767 L0,59.4616021 C0,60.2687284 0.641684414,60.9232043 1.43339828,60.9232043 L8.60006495,60.9232043 L8.60006495,77 L34.4000974,77 L34.4000974,57.634765 L43,57.634765 L43,46.7336767 C43,44.7563416 41.7021803,43.0238761 39.8313585,42.5035074 Z" id="Shape" fill="#8E51C7"></path>
                            <path d="M27.3077319,39 L15.6921036,39 L10,40.6037156 C10.7605481,46.4709222 15.6124961,51 21.5,51 C27.3875039,51 32.2394519,46.4709222 33,40.6037156 L27.3077319,39 Z" id="Shape" fill="#7F43B8"></path>
                            <path d="M14,34 L14,38.9412141 C14,42.8397148 17.1339662,46 21,46 C24.8660338,46 28,42.8397148 28,38.9412141 L28,34 L14,34 Z" id="Shape" fill="#B48764"></path>
                            <path d="M14,37.2698968 C16.1026327,38.370489 18.4789977,39 21,39 C23.5210023,39 25.8973673,38.370489 28,37.2698968 L28,34 L14,34 L14,37.2698968 Z" id="Shape" fill="#966D50"></path>
                            <path d="M35.0909241,17.8421931 L35.0909241,9 L8.90907593,9 L8.90907593,17.8421931 C7.30236965,17.8421931 6,19.1616942 6,20.7895352 C6,22.4173762 7.30253442,23.7368773 8.90907593,23.7368773 C8.90907593,31.0619112 14.7700689,37 22,37 C29.2299311,37 35.0909241,31.0619112 35.0909241,23.7368773 C36.6976304,23.7368773 38,22.4172092 38,20.7895352 C38,19.1616942 36.6976304,17.8421931 35.0909241,17.8421931 Z" id="Shape" fill="#C39772"></path>
                            <path d="M16.3702212,23.7368773 L16.3702212,9 L8.96294432,9 L8.96294432,17.8421931 C7.32648609,17.8421931 6,19.1616942 6,20.7895352 C6,22.4173762 7.32665391,23.7368773 8.96294432,23.7368773 C8.96294432,31.0619112 14.9324674,37 22.2962776,37 C23.5828215,37 24.8228779,36.8088526 26,36.4706303 C20.4401369,34.8728387 16.3702212,29.7821421 16.3702212,23.7368773 Z" id="Shape" fill="#B48764"></path>
                            <path d="M21.500085,30 C19.9122028,30 18.3946666,29.3339456 17.3355687,28.1728446 C16.8125617,27.6004517 16.9123034,26.7611234 17.5552725,26.2968945 C18.2013001,25.8338741 19.144514,25.9225504 19.6646325,26.4928284 C20.6549136,27.5762809 22.3452563,27.5762809 23.3353675,26.4928284 C23.8568453,25.9223994 24.8002291,25.8338741 25.4447275,26.2968945 C26.0876966,26.7611234 26.1874383,27.6004517 25.6644313,28.1728446 C24.6055033,29.3339456 23.0879671,30 21.500085,30 Z" id="Shape" fill="#966D50"></path>
                            <g id="Group" transform="translate(14.000000, 19.000000)" fill="#553732">
                                <path d="M1.53421348,4.87678571 C0.711910112,4.87678571 0.0463483146,4.17089286 0.0463483146,3.30035714 L0.0463483146,1.72392857 C0.0463483146,0.853392857 0.711741573,0.1475 1.53421348,0.1475 C2.35668539,0.1475 3.02207865,0.853392857 3.02207865,1.72392857 L3.02207865,3.30035714 C3.02207865,4.17107143 2.35668539,4.87678571 1.53421348,4.87678571 Z" id="Shape"></path>
                                <path d="M13.4366292,4.87678571 C12.6143258,4.87678571 11.948764,4.17089286 11.948764,3.30035714 L11.948764,1.72392857 C11.948764,0.853392857 12.6141573,0.1475 13.4366292,0.1475 C14.2589326,0.1475 14.9244944,0.853392857 14.9244944,1.72392857 L14.9244944,3.30035714 C14.9244944,4.17107143 14.2589326,4.87678571 13.4366292,4.87678571 Z" id="Shape"></path>
                            </g>
                            <path d="M31.2606767,16.1978576 C31.6841327,17.331691 32.8827201,17.8453788 34.0634034,17.635951 C34.2212549,17.6078833 34.3837057,17.5932682 34.5499343,17.5932682 C35.0808147,17.5932682 35.5719448,17.7480555 36,18 L36,8.7966341 C36,6.60320536 34.7950066,4.71353835 33.0312089,3.7077532 C32.7017083,1.60899051 30.9185283,0 28.75,0 L17.1499671,0 C11.5443495,0 7,4.5947906 7,10.2626291 L7,18 C7.42805519,17.7478894 7.91902102,17.5931021 8.4500657,17.5931021 C8.63649803,17.5931021 8.81833114,17.611371 8.99408673,17.646414 C10.4062089,17.9275888 11.8203022,17.138373 12.1739488,15.7276829 L12.5305519,14.2856036 C12.6880749,13.6481856 13.2408016,13.1937886 13.890276,13.1760179 C16.588042,13.1024442 23.7094284,12.7407202 28.565046,10.963656 C29.42477,10.649099 30.3511827,11.1783984 30.5014783,12.0901819 L31.0443495,15.3838957 C31.0908344,15.6668973 31.163929,15.9387716 31.2606767,16.1978576 Z" id="Shape" fill="#64463C"></path>
                            <path d="M15.4999198,8.79671526 C15.4999198,3.93847573 19.3054252,0 24,0 L16.9166533,0 C11.4398901,0 7,4.59466691 7,10.2627237 L7,18 C7.41821563,17.7480531 7.8978958,17.5932644 8.41673353,17.5932644 C8.5988804,17.5932644 8.7763733,17.6115335 8.94808885,17.6465769 C10.3279116,17.9275881 11.7093391,17.1385311 12.0548565,15.727828 L12.4032625,14.2857354 C12.5571646,13.6483115 13.0970254,13.1939103 13.731731,13.1761395 C14.1968074,13.1631851 14.8018238,13.1404318 15.5000802,13.1032294 L15.4999198,8.79671526 Z" id="Shape" fill="#553732"></path>
                            <path d="M0,46.9074642 L0,59.5484055 C0,60.3500053 0.671525129,61 1.50005664,61 L9,61 L9,56.2324954 C9,54.6186078 8.44402069,53.0507607 7.42008081,51.7767514 L1.16956161,44 C0.44247253,44.7802238 0,45.8006809 0,46.9074642 Z" id="Shape" fill="#7F43B8"></path>
                            <path d="M53.0366967,68.4741832 L48.3207738,66.8417463 C47.7308949,66.6375006 47.3331152,66.064355 47.3331152,65.4188228 L47.3331152,62 L38.6665576,62 L38.6665576,65.4188228 C38.6665576,66.0645249 38.2687779,66.6376705 37.6788989,66.8417463 L32.962976,68.4741832 C31.1935027,69.0867506 30,70.8063573 30,72.7432938 L30,75.499932 C30,76.3282999 30.6466579,77 31.4445081,77 L54.5554919,77 C55.3531785,77 56,76.3284698 56,75.499932 L56,72.7432938 C55.9996727,70.8063573 54.80617,69.0867506 53.0366967,68.4741832 Z" id="Shape" fill="#E6AF78"></path>
                            <path d="M39.0388911,62 L39.0388911,65.0390454 C39.0388911,65.1151726 39.0138055,65.185409 39,65.2586663 C40.287446,65.6920172 41.6583983,65.9560456 43.0882766,65.9945623 C43.2246478,65.9981874 43.3620293,66 43.4975588,66 C45.0789607,66 46.5906617,65.7403519 48,65.2861566 C47.9824906,65.2042897 47.9562265,65.1245374 47.9562265,65.0390454 L47.9562265,62 L39.0388911,62 Z" id="Shape" fill="#D29B6E"></path>
                            <path d="M42.9999182,32 C35.8202483,32 30,37.7083384 30,44.7499599 L30,49 L56,49 L56,44.7499599 C55.9998364,37.7083384 50.179588,32 42.9999182,32 Z" id="Shape" fill="#64463C"></path>
                            <path d="M47,32.7409446 C45.6689638,32.2697699 44.2426013,32 42.7499599,32 C35.7083384,32 30,37.7083384 30,44.7499599 L30,49 L38.5000802,49 L38.5000802,44.7499599 C38.5000802,39.2009799 42.0513825,34.4930851 47,32.7409446 Z" id="Shape" fill="#553732"></path>
                            <path d="M53.1111293,46.2052811 L53.1111293,44.921206 C53.1111293,42.7330373 50.8854471,41.3600984 48.9610059,42.3009807 C40.9934171,46.1963779 32.8888707,46.2052811 32.8888707,46.2052811 C31.2933239,46.2052811 30,47.5330321 30,49.1710509 C30,50.8090697 31.2934876,52.1368207 32.8888707,52.1368207 L32.8888707,53.1843733 C32.8888707,58.8681356 37.155007,63.8245241 42.6889412,63.9951966 C48.4151395,64.1717485 53.1111293,59.4586018 53.1111293,53.6197897 L53.1111293,52.1368207 C54.7066761,52.1368207 56,50.8089017 56,49.1710509 C56,47.5330321 54.7065124,46.2052811 53.1111293,46.2052811 Z" id="Shape" fill="#F0C087"></path>
                            <path d="M51.0127065,29.0597437 L43.5,32.3749061 L35.9872935,29.0597437 C35.5198055,28.8535272 35,29.2064747 35,29.7301127 L35,36.2698873 C35,36.7935253 35.519966,37.1464728 35.9872935,36.9402563 L43.5,33.6250939 L51.0127065,36.9402563 C51.4801945,37.1464728 52,36.7935253 52,36.2698873 L52,29.7301127 C52,29.20664 51.480034,28.8535272 51.0127065,29.0597437 Z" id="Shape" fill="#FFDC64"></path>
                            <path d="M38.7272278,53.8534422 L38.7272278,46 C35.287746,46.5977069 32.9090759,46.605753 32.9090759,46.605753 C31.3023696,46.605753 30,47.9036309 30,49.5047958 C30,51.1059608 31.3025344,52.4038387 32.9090759,52.4038387 L32.9090759,53.4278223 C32.9090759,58.9837054 37.2050503,63.8287441 42.7776897,63.9954123 C43.9009505,64.0290744 44.9826885,63.8763636 46,63.5743902 C41.7951454,62.3262665 38.7272278,58.4490532 38.7272278,53.8534422 Z" id="Shape" fill="#E6AF78"></path>
                            <path d="M43.500085,59 C41.9122028,59 40.3946666,58.3339456 39.3355687,57.1728446 C38.8125617,56.6004517 38.9123034,55.7611234 39.5552725,55.2968945 C40.1997709,54.8338741 41.144514,54.9225504 41.6646325,55.4928284 C42.6549136,56.5762809 44.3452563,56.5762809 45.3353675,55.4928284 C45.8553161,54.9223994 46.7986999,54.8338741 47.4447275,55.2968945 C48.0876966,55.7611234 48.1874383,56.6004517 47.6644313,57.1728446 C46.6053334,58.3339456 45.0877972,59 43.500085,59 Z" id="Shape" fill="#D29B6E"></path>
                            <g id="Group" transform="translate(37.000000, 49.000000)" fill="#553732">
                                <path d="M1.5575,2.977 C1.17533333,2.977 0.791666667,2.81466667 0.513,2.55033333 C0.247166667,2.27083333 0.0863333333,1.888 0.0863333333,1.50583333 C0.0863333333,1.123 0.247333333,0.740666667 0.513,0.461333333 C1.0575,-0.0831666667 2.0575,-0.0831666667 2.602,0.461333333 C2.86633333,0.740833333 3.02866667,1.123 3.02866667,1.50583333 C3.02866667,1.888 2.86633333,2.271 2.602,2.55033333 C2.32183333,2.81466667 1.93966667,2.977 1.5575,2.977 Z" id="Shape"></path>
                                <path d="M10.385,2.977 C10.0028333,2.977 9.61916667,2.81466667 9.3405,2.55033333 C9.20833333,2.4175 9.10483333,2.25583333 9.03166667,2.06466667 C8.95833333,1.888 8.91383333,1.69683333 8.91383333,1.50583333 C8.91383333,1.314 8.95833333,1.123 9.03166667,0.946166667 C9.105,0.755 9.20833333,0.5935 9.3405,0.461333333 C9.885,-0.0831666667 10.8706667,-0.0831666667 11.4295,0.461333333 C11.5616667,0.607833333 11.6651667,0.755166667 11.7383333,0.946166667 C11.8116667,1.12283333 11.8561667,1.314 11.8561667,1.50583333 C11.8561667,1.888 11.6938333,2.271 11.4295,2.55033333 C11.1495,2.81466667 10.7671667,2.977 10.385,2.977 Z" id="Shape"></path>
                            </g>
                            <path d="M53.0366967,68.7855129 L50.6812715,68 C49.2344726,70.7704146 46.340384,72.6642897 42.9997546,72.6642897 C39.6591251,72.6642897 36.7650365,70.7705783 35.3184012,68 L32.962976,68.7855129 C31.1935027,69.3757117 30,71.0325251 30,72.8987321 L30,75.5547087 C30,76.3528278 30.6466579,77 31.4445081,77 L54.5554919,77 C55.3531785,77 56,76.3529915 56,75.5547087 L56,72.8987321 C55.9996727,71.0325251 54.80617,69.3757117 53.0366967,68.7855129 Z" id="Shape" fill="#FFDC64"></path>
                            <circle id="Oval" fill="#FFC850" cx="43" cy="33" r="2"></circle>
                        </g>
                    </g>
                </g>
            </g>
        </g>
    </g>
</svg>