<?xml version="1.0" encoding="UTF-8"?>
<svg width="20px" height="20px" viewBox="0 0 20 20" version="1.1" xmlns="http://www.w3.org/2000/svg" xmlns:xlink="http://www.w3.org/1999/xlink">
    <!-- Generator: Sketch 46.2 (44496) - http://www.bohemiancoding.com/sketch -->
    <title>instagram</title>
    <desc>Created with Sketch.</desc>
    <defs>
        <radialGradient cx="6.47189943%" cy="97.8093144%" fx="6.47189943%" fy="97.8093144%" r="126.962879%" id="radialGradient-1">
            <stop stop-color="#FA8F21" offset="9%"></stop>
            <stop stop-color="#D82D7E" offset="78%"></stop>
        </radialGradient>
    </defs>
    <g id="Page-1" stroke="none" stroke-width="1" fill="none" fill-rule="evenodd">
        <g id="Artboard-Copy" transform="translate(-1075.000000, -6216.000000)" fill-rule="nonzero">
            <g id="Footer" transform="translate(0.000000, 5970.000000)">
                <g id="Column:-Social" transform="translate(1074.000000, 118.000000)">
                    <g id="instagram" transform="translate(1.000000, 128.000000)">
                        <path d="M5.07102526,19.9274889 C3.88172363,19.8734027 3.23566122,19.6754829 2.80594354,19.5078752 C2.23655275,19.2861813 1.83060921,19.0222883 1.40326895,18.5955423 C0.975928678,18.1687964 0.711441308,17.7628529 0.490936107,17.1934621 C0.32332838,16.7637444 0.125408618,16.117682 0.0713224368,14.9283804 C0.0118870728,13.6427935 0,13.2570579 0,10 C0,6.74294205 0.0130757801,6.35780089 0.0707280832,5.07102526 C0.124814264,3.88172363 0.323922734,3.23684993 0.490341753,2.80594354 C0.712035661,2.23655275 0.976523031,1.83060921 1.40267459,1.40267459 C1.82942051,0.975928678 2.23536404,0.710846954 2.80534918,0.490341753 C3.23506686,0.322734027 3.88112927,0.124814264 5.07043091,0.0707280832 C6.35661218,0.0118870728 6.74294205,0 9.99881129,0 C13.2558692,0 13.6410104,0.0130757801 14.927786,0.0707280832 C16.1170877,0.124814264 16.7619614,0.323922734 17.1928678,0.490341753 C17.7622585,0.710846954 18.1682021,0.975928678 18.5955423,1.40267459 C19.0228826,1.82942051 19.2861813,2.2359584 19.5078752,2.80534918 C19.6754829,3.23506686 19.8734027,3.88112927 19.9274889,5.07043091 C19.9863299,6.35720654 19.9982169,6.7423477 19.9982169,9.99940565 C19.9982169,13.2552749 19.9863299,13.6416048 19.9274889,14.9283804 C19.8734027,16.117682 19.6742942,16.7637444 19.5078752,17.1934621 C19.2861813,17.7628529 19.0222883,18.1687964 18.5955423,18.5955423 C18.1687964,19.0222883 17.7622585,19.2861813 17.1928678,19.5078752 C16.7631501,19.6754829 16.1170877,19.8734027 14.927786,19.9274889 C13.6421991,19.9863299 13.2558692,19.9982169 9.99881129,19.9982169 C6.74294205,19.9982169 6.35661218,19.9869242 5.07102526,19.9274889" id="Shape" fill="url(#radialGradient-1)"></path>
                        <path d="M7.54383358,10.0417236 C7.54383358,8.67405646 8.65224368,7.56505201 10.0199108,7.56505201 C11.387578,7.56505201 12.4965825,8.67405646 12.4965825,10.0417236 C12.4965825,11.4093908 11.387578,12.5183952 10.0199108,12.5183952 C8.65224368,12.5183952 7.54383358,11.4093908 7.54383358,10.0417236 M6.20499257,10.0417236 C6.20499257,12.1487073 7.91292719,13.8566419 10.0199108,13.8566419 C12.1268945,13.8566419 13.8348291,12.1487073 13.8348291,10.0417236 C13.8348291,7.93473997 12.1268945,6.22680535 10.0199108,6.22680535 C7.91292719,6.22680535 6.20505201,7.9346211 6.20505201,10.0417236 M13.0943834,6.07554235 C13.0941864,6.56792097 13.4931785,6.96723234 13.9855572,6.96742928 C14.4779358,6.96762622 14.8772472,6.56863414 14.8774441,6.07625552 C14.8776411,5.58387691 14.4786491,5.18456549 13.9862704,5.1843685 L13.9859138,5.1843685 C13.4937694,5.18459787 13.0948096,5.58339806 13.0943834,6.07554235 M7.01842496,16.089153 C6.29408618,16.0561664 5.90038633,15.9355126 5.63875186,15.833581 C5.29188707,15.6985438 5.04439822,15.5377117 4.78419019,15.2778603 C4.52398217,15.0180089 4.36291233,14.7707578 4.22846954,14.423893 C4.12647845,14.1623774 4.00582467,13.7685587 3.97289747,13.0442199 C3.93687964,12.2610996 3.92968796,12.0258544 3.92968796,10.0418425 C3.92968796,8.05783061 3.937474,7.82323923 3.97289747,7.03946508 C4.0058841,6.3151263 4.12742942,5.92208024 4.22846954,5.65979198 C4.36350669,5.31292719 4.52433878,5.06543834 4.78419019,4.80523031 C5.0440416,4.54502229 5.29129272,4.38395245 5.63875186,4.24950966 C5.90026746,4.14751857 6.29408618,4.02686478 7.01842496,3.99393759 C7.80154532,3.95791976 8.03679049,3.95072808 10.0199108,3.95072808 C12.0030312,3.95072808 12.2385141,3.95839525 13.0222883,3.99405646 C13.746627,4.02704309 14.1396731,4.14858841 14.4019614,4.24962853 C14.7488262,4.38407132 14.996315,4.54549777 15.256523,4.80534918 C15.5167311,5.06520059 15.6772065,5.31304606 15.8122437,5.65991085 C15.9142348,5.92142645 16.0348886,6.31524517 16.0678158,7.03958395 C16.1038336,7.8233581 16.1110253,8.05794948 16.1110253,10.0419614 C16.1110253,12.0259733 16.1038336,12.2605646 16.0678158,13.0443388 C16.0348291,13.7686776 15.913581,14.1623774 15.8122437,14.4240119 C15.6772065,14.7708767 15.5163744,15.0183655 15.256523,15.2779792 C14.9966716,15.5375929 14.7488262,15.6986627 14.4019614,15.8336999 C14.1404458,15.9356909 13.746627,16.0563447 13.0222883,16.0892719 C12.2391679,16.1252897 12.0039227,16.1324814 10.0199108,16.1324814 C8.03589896,16.1324814 7.80130758,16.1252897 7.01842496,16.0892719 M6.95690936,2.65729569 C6.16600297,2.69331352 5.62555721,2.81872214 5.15358098,3.00237741 C4.66508172,3.19203566 4.25099554,3.44647845 3.83750371,3.85931649 C3.42401189,4.27215453 3.17022288,4.68630015 2.98056464,5.17539376 C2.79690936,5.64766716 2.67150074,6.18781575 2.63548291,6.97872214 C2.59887073,7.77087667 2.59049034,8.02413076 2.59049034,10.0417236 C2.59049034,12.0593165 2.59887073,12.3125706 2.63548291,13.1047251 C2.67150074,13.8956909 2.79690936,14.4357801 2.98056464,14.9080535 C3.17022288,15.3965527 3.42407132,15.811471 3.83750371,16.2241308 C4.25093611,16.6367905 4.66448737,16.8908767 5.15358098,17.0810698 C5.62644874,17.2647251 6.16600297,17.3901337 6.95690936,17.4261516 C7.74947994,17.4621694 8.00231798,17.4711441 10.0199108,17.4711441 C12.0375037,17.4711441 12.2907578,17.4627637 13.0829123,17.4261516 C13.8738782,17.3901337 14.4139673,17.2647251 14.8862407,17.0810698 C15.37474,16.8908767 15.7888262,16.6369688 16.202318,16.2241308 C16.6158098,15.8112927 16.8690639,15.3965527 17.0592571,14.9080535 C17.2429123,14.4357801 17.3689153,13.8956315 17.4043388,13.1047251 C17.4403566,12.3119762 17.448737,12.0593165 17.448737,10.0417236 C17.448737,8.02413076 17.4403566,7.77087667 17.4043388,6.97872214 C17.368321,6.18775632 17.2429123,5.64736999 17.0592571,5.17539376 C16.8690639,4.6868945 16.615156,4.27280832 16.202318,3.85931649 C15.7894799,3.44582467 15.37474,3.19203566 14.8868351,3.00237741 C14.4139673,2.81872214 13.8738187,2.69271917 13.0835067,2.65729569 C12.2912333,2.62109955 12.0380981,2.61230312 10.0208024,2.61230312 C8.00350669,2.61230312 7.74977712,2.62068351 6.95720654,2.65729569" id="Shape" fill="#FFFFFF"></path>
                    </g>
                </g>
            </g>
        </g>
    </g>
</svg>