<?xml version="1.0" encoding="UTF-8"?>
<svg width="738px" height="91px" viewBox="0 0 738 91" version="1.1" xmlns="http://www.w3.org/2000/svg" xmlns:xlink="http://www.w3.org/1999/xlink">
    <!-- Generator: Sketch 47.1 (45422) - http://www.bohemiancoding.com/sketch -->
    <title>Logo/LuxembourgTimes - Default</title>
    <desc>Created with Sketch.</desc>
    <defs>
        <polygon id="path-1" points="37.7940383 0.168879891 37.7940383 53.1372311 0.719125773 53.1372311 0.719125773 0.168879891 37.7940383 0.168879891"></polygon>
        <polygon id="path-3" points="0.0730076353 53.1440217 133.944935 53.1440217 133.944935 0.15972731 0.0730076353 0.15972731"></polygon>
        <polygon id="path-5" points="0 65.9056757 0 0.412709759 57.8197531 0.412709759 57.8197531 65.9056757"></polygon>
    </defs>
    <g id="Symbols" stroke="none" stroke-width="1" fill="none" fill-rule="evenodd">
        <g id="Logo/LuxembourgTimes---Default">
            <g id="Page-1" transform="translate(0.000000, 12.000000)">
                <path d="M648.709901,9.30118144 C648.153284,8.77546339 647.086563,9.27709193 647.002838,9.97143652 C646.841589,11.3558746 648.643231,12.1494113 649.812283,11.7143832 C650.599919,11.419641 649.815384,10.7975649 650.133229,10.3214429 C650.379753,9.95018108 651.06816,9.96010028 651.390657,10.3171918 C651.545704,10.4900694 651.545704,10.9109273 651.390657,11.0823879 C650.046403,12.5589329 647.419913,12.2741099 646.813681,10.5099078 C646.653983,10.040871 646.81213,9.50239966 647.240059,9.07303964 C647.979632,8.32768197 647.951723,8.22140474 647.957925,7.89265383 L647.957925,5.28673606 C647.957925,4.79219267 647.745511,4.58955741 647.506739,4.58955741 C647.254013,4.58955741 647.133077,4.70291979 646.947021,4.86871228 L646.813681,4.69158355 L648.781223,3.00815217 C649.486685,3.43892923 649.951825,3.91930232 649.951825,4.67883029 L651.651136,3.10876129 L652.769022,4.83045247 L651.359648,6.19646918 L650.390607,4.55129761 L649.951825,4.91830832 L649.951825,7.6390055 C649.951825,8.17039167 650.283624,8.50055961 650.722406,8.50055961 C651.055757,8.50055961 651.59842,8.09528909 651.945724,7.84164076 L652.037202,7.99326295 L649.458776,9.94309593 C649.249463,9.75746502 648.917664,9.49814857 648.709901,9.30118144" id="Fill-1" fill="#777777"></path>
                <path d="M639.733696,5.19225857 C639.426041,5.76986075 638.9458,6.37364757 638.292973,6.37364757 C637.269459,6.37364757 636.618132,5.45256462 636.618132,4.36821278 C636.618132,3.24227359 637.836744,2.54144961 637.836744,1.67581647 C637.836744,0.714686436 637.036843,0.247983871 636.236941,0.247983871 C635.43704,0.247983871 634.524582,0.536014827 634.524582,1.59418203 C634.524582,2.70625877 636.100373,3.35163294 636.100373,4.58847175 C636.100373,5.49415197 635.767205,5.79758565 634.389514,6.77257814 L634.389514,6.80030305 C634.50057,6.77257814 634.623632,6.74485324 634.746693,6.74485324 C635.449046,6.74485324 636.43354,7.58276147 637.000824,8.03560158 C637.356503,8.33749499 637.68967,8.5438915 638.156404,8.5438915 C638.858757,8.5438915 639.179918,7.96782959 639.277467,7.23928071 L639.462059,7.23928071 C639.338998,8.80573783 638.390522,10.0271739 636.963306,10.0271739 C635.23894,10.0271739 634.40152,7.98169205 633.490563,7.98169205 C633.109372,7.98169205 632.972803,8.53002905 632.936785,8.97054698 L632.714674,8.97054698 C632.752193,7.94010469 633.341989,7.17150872 634.131385,6.70326588 C634.439039,6.52459427 634.698669,6.3043353 634.698669,6.0024419 C634.698669,5.7837232 634.512576,5.59118914 633.885261,4.90422761 C633.442539,4.40980014 632.972803,3.75056351 632.972803,2.88493037 C632.972803,1.00271739 634.550095,0 636.064355,0 C637.628139,0 639.388522,0.948807854 639.388522,2.74784612 C639.388522,4.42212232 638.094873,4.9719996 638.094873,5.70054849 C638.094873,5.906945 638.292973,6.04402925 638.452053,6.04402925 C638.969812,6.04402925 639.289473,5.57732669 639.573115,5.08289922 L639.733696,5.19225857 Z" id="Fill-3" fill="#777777"></path>
                <path d="M644.195371,4.8016788 C644.195371,4.55899986 644.104931,4.40535106 643.876746,4.39099136 L643.876746,4.23734256 C644.456949,4.0578463 644.846534,3.53371722 645.038544,3.00815217 C645.416998,3.59833588 645.8845,4.072206 646.489748,4.23734256 L646.489748,4.39099136 L646.307477,4.39099136 C645.987461,4.39099136 645.906762,4.60925881 645.906762,5.09605267 L645.906762,7.95219715 C645.906762,8.40021982 646.090423,8.56679234 646.307477,8.56679234 C646.432701,8.56679234 646.581578,8.42463131 646.660887,8.32267743 L646.752717,8.48924996 L645.245859,10.0271739 C644.686526,9.67966915 644.206502,9.3221126 644.195371,8.48924996 L642.32258,10.0271739 C642.015086,9.52745633 641.557324,9.02773874 640.977121,8.77213607 L640.977121,8.6170513 C641.420969,8.6170513 641.592109,8.45191474 641.592109,7.95219715 L641.592109,5.04435774 C641.592109,4.63510627 641.420969,4.45561001 641.226177,4.45561001 C641.06756,4.45561001 640.964598,4.55899986 640.793459,4.68536522 L640.736413,4.55899986 L642.379627,3.00815217 C643.29376,3.66151856 643.304891,4.39099136 643.304891,4.82752626 L643.304891,8.13025744 C643.304891,8.36144862 643.361937,8.65582249 643.578992,8.65582249 C643.693084,8.65582249 643.761262,8.60412757 643.853092,8.54094488 L644.195371,8.27241848 L644.195371,4.8016788 Z" id="Fill-5" fill="#777777"></path>
                <path d="M657.613898,5.26211147 L654.7283,7.05637224 C654.924068,7.8249307 655.614829,8.49149355 656.517275,8.49149355 C656.947011,8.49149355 657.365606,8.15821213 657.691887,7.96571337 L657.782609,8.10649604 C656.947011,8.73427183 656.046157,9.29740252 655.263082,10.0271739 C653.64441,9.43962175 652.769022,8.72134281 652.769022,6.92851859 C652.769022,4.82683443 652.912267,4.37862838 654.126669,3.86577722 L656.178261,3.00815217 L657.613898,5.26211147 Z M655.94111,6.03066993 L654.715567,3.8528482 L654.688509,3.8528482 C654.674185,4.69898078 654.648719,5.54367681 654.648719,6.21023966 C654.648719,6.54352109 654.663043,6.68430376 654.688509,6.82508643 L655.94111,6.03066993 Z" id="Fill-7" fill="#777777"></path>
                <path d="M658.666988,5.08355353 C658.666988,4.63543919 658.474668,4.46883257 658.248838,4.46883257 C658.116254,4.46883257 657.961816,4.60958644 657.877312,4.71156117 L657.782609,4.54495456 L659.360504,3.00815217 C659.946205,3.35429178 660.448859,3.71192149 660.459058,4.54495456 L662.086491,3.02107855 C662.670735,3.36721815 663.173388,3.72484787 663.186501,4.55788094 L665.144665,3.00815217 C665.468112,3.50797202 665.945997,4.00635559 666.556467,4.26344683 L666.556467,4.41712707 C666.090237,4.41712707 665.91103,4.58373369 665.91103,5.08355353 L665.91103,8.07960005 C665.91103,8.40132316 666.090237,8.57941989 666.292756,8.57941989 C666.461764,8.57941989 666.568123,8.47744515 666.74733,8.34961766 L666.807065,8.47744515 L665.086387,10.0271739 C664.129159,9.38660021 664.117503,8.65697814 664.117503,8.22179018 L664.117503,4.91694691 C664.117503,4.68570842 664.057768,4.39127432 663.830481,4.39127432 C663.735778,4.39127432 663.627962,4.44297982 663.544915,4.50617543 L663.186501,4.77619305 L663.186501,8.23471655 C663.186501,8.47744515 663.281204,8.63112539 663.520147,8.64405177 L663.520147,8.797732 C662.909677,8.97726499 662.50464,9.50150132 662.300665,10.0271739 C661.907284,9.43830571 661.416286,8.96433862 660.926745,8.797732 L660.926745,8.64405177 L661.069527,8.64405177 C661.30847,8.64405177 661.391517,8.38839679 661.391517,7.93884618 L661.391517,4.73741392 C661.391517,4.44297982 661.237079,4.37834795 661.140919,4.37834795 C661.033103,4.37834795 660.913632,4.43005345 660.818929,4.49324906 L660.459058,4.76326667 L660.459058,8.23471655 C660.459058,8.47744515 660.555218,8.63112539 660.79416,8.64405177 L660.79416,8.797732 C660.185148,8.97726499 659.778654,9.50150132 659.574679,10.0271739 C659.181297,9.43830571 658.691756,8.96433862 658.056519,8.797732 L658.056519,8.64405177 L658.248838,8.64405177 C658.582484,8.64405177 658.666988,8.42573965 658.666988,7.93884618 L658.666988,5.08355353 Z" id="Fill-9" fill="#777777"></path>
                <path d="M669.189855,3.900911 L670.909465,2.49947831 C671.393148,3.17247401 671.820652,3.62524457 671.820652,4.58776702 L671.820652,7.07338501 C671.820652,8.18529095 671.438364,8.5564396 670.865618,8.80438539 C670.392897,9.00921017 669.380314,9.38035882 669.08846,10.0271739 C668.49242,9.29873692 667.773061,8.63960154 666.952307,8.32389418 L666.952307,8.15911034 C667.392144,8.15911034 667.504501,7.85572326 667.504501,7.30593043 L667.504501,3.02155049 C667.504501,2.12986969 667.108511,1.03028403 666.807065,0.742297316 L666.930384,0.591373796 C667.131804,0.837779544 667.379812,1.33213108 667.492169,1.82648261 L667.514092,1.82648261 C667.673036,0.468170921 668.919924,0 670.392897,0 L670.460037,0 L670.460037,0.247945784 L670.212029,0.247945784 C669.335097,0.247945784 669.189855,1.00256339 669.189855,1.99126645 L669.189855,3.900911 Z M670.132557,4.93119503 C670.132557,4.27205966 670.076379,3.85933003 669.774933,3.85933003 C669.550219,3.85933003 669.335097,4.05183452 669.189855,4.18889772 L669.189855,7.65089848 C669.514594,7.95274552 669.842073,8.26845289 670.132557,8.65192183 L670.132557,4.93119503 Z" id="Fill-11" fill="#777777"></path>
                <path d="M676.282327,4.8016788 C676.282327,4.55899986 676.190496,4.40535106 675.963702,4.39099136 L675.963702,4.23734256 C676.543906,4.0578463 676.932099,3.53371722 677.1255,3.00815217 C677.503954,3.59833588 677.971456,4.072206 678.575313,4.23734256 L678.575313,4.39099136 L678.394434,4.39099136 C678.074418,4.39099136 677.993718,4.60925881 677.993718,5.09605267 L677.993718,7.95219715 C677.993718,8.40021982 678.175988,8.56679234 678.394434,8.56679234 C678.518266,8.56679234 678.668535,8.42463131 678.746452,8.32267743 L678.839674,8.48924996 L677.332815,10.0271739 C676.773482,9.67966915 676.293458,9.3221126 676.282327,8.48924996 L674.409537,10.0271739 C674.102043,9.52745633 673.644281,9.02773874 673.062686,8.77213607 L673.062686,8.6170513 C673.507926,8.6170513 673.679065,8.45191474 673.679065,7.95219715 L673.679065,5.04435774 C673.679065,4.63510627 673.507926,4.45561001 673.313133,4.45561001 C673.154517,4.45561001 673.051555,4.55899986 672.880416,4.68536522 L672.82337,4.55899986 L674.466583,3.00815217 C675.380716,3.66151856 675.390456,4.39099136 675.390456,4.82752626 L675.390456,8.13025744 C675.390456,8.36144862 675.447502,8.65582249 675.665948,8.65582249 C675.780041,8.65582249 675.848218,8.60412757 675.940049,8.54094488 L676.282327,8.27241848 L676.282327,4.8016788 Z" id="Fill-13" fill="#777777"></path>
                <path d="M684.855978,4.85193775 L683.669411,6.23477694 L682.852453,4.57048762 L682.484208,4.94240387 L682.484208,7.69515851 C682.484208,8.23364729 682.763801,8.56535637 683.132046,8.56535637 C683.41164,8.56535637 683.8699,8.1561049 684.161768,7.90050223 L684.240873,8.05415103 L682.069591,10.0271739 C681.49813,9.42406648 680.859838,8.79654756 680.076977,8.60412757 L680.076977,8.45047877 C680.368845,8.45047877 680.80392,8.33560116 680.80392,7.95219715 L680.80392,5.31288415 C680.80392,4.81460253 680.625253,4.60925881 680.424764,4.60925881 C680.212,4.60925881 680.111074,4.72413642 679.954229,4.89070895 L679.842391,4.71121269 L681.49813,3.00815217 C682.092777,3.44468708 682.484208,3.93004496 682.484208,4.69972493 L683.916272,3.11154202 L684.855978,4.85193775 Z" id="Fill-15" fill="#777777"></path>
                <path d="M685.858696,5.20705519 C685.858696,4.25145715 687.420145,4.32925546 688.570395,3.00815217 C689.174692,3.74063055 690.006817,4.23824612 690.872283,4.44815475 L690.872283,4.60521925 C690.440244,4.60521925 690.234644,4.78870582 690.234644,5.25989932 L690.234644,9.01623632 C690.234644,9.21293392 690.394401,9.38320946 690.554158,9.61807226 C690.701412,9.85440296 690.862558,10.1553209 690.862558,10.6397255 C690.862558,12.2103705 689.403909,13.0353261 688.205038,13.0353261 C687.431259,13.0353261 686.00595,12.9046837 686.00595,11.6731218 C686.00595,11.12413 686.415761,10.810001 686.861691,10.810001 C687.304843,10.810001 687.863297,11.0463317 687.853573,11.6481676 C687.853573,12.5509216 687.146475,12.3292698 687.146475,12.5641326 C687.146475,12.7740412 687.692427,12.7989954 687.842459,12.7989954 C688.570395,12.7989954 689.424747,12.4467012 689.424747,11.4646811 C689.424747,10.482661 688.548168,10.2859634 688.548168,8.68889629 C687.977211,9.14687876 687.431259,9.64449433 686.918648,10.181743 C685.972609,9.54027396 685.858696,9.16008979 685.858696,8.37476729 L685.858696,5.20705519 Z M688.525941,5.04999069 C688.182811,4.87971516 687.863297,4.64485235 687.567399,4.36888855 L687.567399,8.16632655 C687.567399,8.55825385 687.63547,8.91201595 687.853573,8.91201595 C687.910529,8.91201595 688.000827,8.89880492 688.091124,8.81953872 L688.525941,8.45403348 L688.525941,5.04999069 Z" id="Fill-17" fill="#777777"></path>
                <path d="M696.719876,5.26211147 L693.834278,7.05637224 C694.030047,7.8249307 694.722399,8.49149355 695.623253,8.49149355 C696.054581,8.49149355 696.471584,8.15821213 696.797865,7.96571337 L696.888587,8.10649604 C696.054581,8.73427183 695.153727,9.29740252 694.369061,10.0271739 C692.750388,9.43962175 691.875,8.72134281 691.875,6.92851859 C691.875,4.82683443 692.019837,4.37862838 693.234239,3.86577722 L695.284239,3.00815217 L696.719876,5.26211147 Z M695.047089,6.03066993 L693.821545,3.8528482 L693.794488,3.8528482 C693.781755,4.69898078 693.756289,5.54367681 693.756289,6.21023966 C693.756289,6.54352109 693.769022,6.68430376 693.794488,6.82508643 L695.047089,6.03066993 Z" id="Fill-19" fill="#777777"></path>
                <path d="M701.902174,4.85193775 L700.715607,6.23477694 L699.898649,4.57048762 L699.530404,4.94240387 L699.530404,7.69515851 C699.530404,8.23364729 699.809997,8.56535637 700.178242,8.56535637 C700.457835,8.56535637 700.91746,8.1561049 701.207964,7.90050223 L701.287068,8.05415103 L699.115787,10.0271739 C698.544325,9.42406648 697.906034,8.79654756 697.123173,8.60412757 L697.123173,8.45047877 C697.415041,8.45047877 697.850115,8.33560116 697.850115,7.95219715 L697.850115,5.31288415 C697.850115,4.81460253 697.671448,4.60925881 697.47096,4.60925881 C697.258196,4.60925881 697.157269,4.72413642 697.000424,4.89070895 L696.888587,4.71121269 L698.544325,3.00815217 C699.138973,3.44468708 699.530404,3.93004496 699.530404,4.69972493 L700.962467,3.11154202 L701.902174,4.85193775 Z" id="Fill-21" fill="#777777"></path>
                <path d="M704.981796,9.34021238 C705.133311,8.25432028 705.848006,6.63395362 706.998666,6.63395362 C707.103011,6.63395362 707.303126,6.64781607 707.526111,6.73099078 C707.807701,6.23502304 707.913475,5.45256462 707.913475,3.65352635 C707.913475,1.56645712 707.596151,0.412793027 706.728511,0.412793027 C706.399751,0.412793027 705.896605,0.851770687 705.896605,1.31847325 C705.896605,2.37664045 707.571851,2.39050291 707.571851,4.03859447 C707.571851,5.38479263 706.248236,6.45528201 705.520676,6.45528201 L705.520676,6.20883841 L705.579281,6.20883841 C705.95521,6.20883841 706.58843,5.79604538 706.58843,5.38479263 C706.58843,4.76560309 704.910326,4.76560309 704.910326,3.00815217 C704.910326,1.26302344 706.060985,0 707.679055,0 C708.37088,0 709.109875,0.301893408 709.613021,1.11207674 C709.847441,0.617649269 710.117595,0 710.66934,0 C711.30256,0 711.58415,0.494427469 711.805706,1.12593919 C712.463225,0.329618313 713.01497,0 713.964085,0 C715.03184,0 716.076724,0.686961531 716.1339,2.05934432 C716.169635,2.82948057 716.22824,3.15909888 716.591305,3.15909888 C716.71995,3.15909888 716.850024,3.14523643 716.942935,3.13137397 L716.942935,3.31004558 C716.685645,3.36549539 716.286845,3.40554248 716.01669,3.40554248 C715.82944,3.40554248 715.66506,3.40554248 715.536415,3.3932203 C715.314859,3.58575436 715.184785,3.68125125 715.184785,3.85992286 C715.184785,4.53302194 716.83716,4.58847175 716.83716,6.38751002 C716.83716,8.10337357 715.14905,10.0271739 713.683925,10.0271739 C712.980664,10.0271739 712.45179,9.65596824 712.05299,9.27244039 C711.642755,8.90123472 711.34973,8.53002905 711.11531,8.53002905 C710.963795,8.53002905 710.705075,8.90123472 710.34058,9.27244039 C709.964651,9.65596824 709.484375,10.0271739 708.885461,10.0271739 C707.584716,10.0271739 706.881455,8.37908235 705.872306,8.37908235 C705.403466,8.37908235 705.261956,8.91509717 705.191916,9.38179974 L704.981796,9.34021238 Z M711.994385,1.64809156 C711.994385,2.62308405 713.378035,3.24227359 713.378035,4.725556 C713.378035,5.72827339 712.78055,6.48300691 712.07586,6.89579994 L712.07586,6.92198457 C712.21737,6.89579994 712.38175,6.89579994 712.54613,6.89579994 C713.62532,6.89579994 714.385755,8.87350982 715.277695,8.87350982 C715.54785,8.87350982 715.92235,8.53002905 715.92235,8.21427319 C715.92235,7.11451863 713.776835,7.00515929 713.776835,5.30161791 C713.776835,4.23112853 714.574435,3.73670106 715.314859,3.36549539 L715.314859,3.37935784 L715.314859,3.35163294 C714.222805,3.22841114 713.894045,2.39050291 713.88261,1.53873222 C713.83544,0.947267582 713.636755,0.412793027 713.073575,0.412793027 C712.66334,0.412793027 711.994385,1.0304423 711.994385,1.64809156 L711.994385,1.64809156 Z M709.730231,1.27842617 C709.94178,1.89607544 710.094725,2.55531206 710.094725,3.22841114 C710.094725,5.23230565 709.30856,6.2766104 707.66762,6.73099078 L707.66762,6.75871569 C708.533831,6.90812212 709.625885,8.37908235 710.38775,8.37908235 C711.009535,8.37908235 711.93578,7.34864005 711.93578,6.60776898 C711.93578,6.1811135 711.60702,5.78218293 711.291125,5.35706772 C710.963795,4.91654979 710.633605,4.43598477 710.633605,3.87378531 C710.633605,2.82948057 711.18535,2.03315969 711.712795,1.27842617 C711.44407,0.933405129 711.009535,0.740871068 710.62217,0.740871068 C710.29484,0.740871068 709.930345,0.961130034 709.730231,1.27842617 L709.730231,1.27842617 Z" id="Fill-23" fill="#777777"></path>
                <path d="M718.385466,4.09684022 C719.540884,4.13561935 720.922742,3.87996437 721.70802,3.00815217 C722.828601,3.85411162 722.959239,4.36542157 722.959239,6.13346245 C722.959239,8.38839679 722.769089,8.65697814 721.780596,8.91406938 C721.125956,9.07923973 720.684691,9.33489471 720.350839,10.0271739 C719.672974,9.36218372 718.861568,8.78480563 717.945652,8.51622428 L717.945652,8.36254404 C718.362241,8.32376491 718.385466,7.99055169 718.385466,7.83687145 L718.385466,4.09684022 Z M720.1723,7.79809232 C720.552601,8.00347806 720.887905,8.31083854 721.172405,8.59234626 L721.172405,5.31335575 C721.172405,4.72448755 721.00693,4.31515233 720.1723,4.12269297 L720.1723,7.79809232 Z" id="Fill-25" fill="#777777"></path>
                <path d="M728.975543,4.85193775 L727.788654,6.23477694 L726.971473,4.57048762 L726.603128,4.94240387 L726.603128,7.69515851 C726.603128,8.23364729 726.882797,8.56535637 727.251142,8.56535637 C727.530812,8.56535637 727.990561,8.1561049 728.281145,7.90050223 L728.360271,8.05415103 L726.188398,10.0271739 C725.618146,9.42406648 724.979681,8.79654756 724.196606,8.60412757 L724.196606,8.45047877 C724.487189,8.45047877 724.923747,8.33560116 724.923747,7.95219715 L724.923747,5.31288415 C724.923747,4.81460253 724.743667,4.60925881 724.543123,4.60925881 C724.330302,4.60925881 724.229348,4.72413642 724.07246,4.89070895 L723.961957,4.71121269 L725.618146,3.00815217 C726.211591,3.44468708 726.603128,3.93004496 726.603128,4.69972493 L728.036945,3.11154202 L728.975543,4.85193775 Z" id="Fill-27" fill="#777777"></path>
                <path d="M731.627697,7.15964474 C731.627697,7.72459519 731.677795,8.32937243 732.090723,8.32937243 C732.424709,8.32937243 732.711634,8.0800862 732.886217,7.96208089 L732.986413,8.0933618 L730.918735,10.0271739 C730.531615,9.40912107 729.822654,8.76451703 729.125837,8.60668492 L729.125837,8.40902602 C729.224515,8.43557722 729.312566,8.44885281 729.385436,8.44885281 C729.722458,8.44885281 729.760411,8.3042963 729.760411,7.89717796 L729.760411,4.63433098 L728.975543,4.63433098 L728.975543,4.47649887 C730.284162,4.09445666 731.029558,2.26537427 731.404533,1.00271739 L731.627697,1.00271739 L731.627697,3.68733832 L732.89988,3.68733832 L732.89988,4.63433098 L731.627697,4.63433098 L731.627697,7.15964474 Z" id="Fill-29" fill="#777777"></path>
                <path d="M623.247612,9.28074954 C623.511247,9.28074954 623.740233,9.2234514 623.937582,9.11040373 C624.133426,8.99580745 624.29462,8.84094762 624.424178,8.64272704 C624.552229,8.44605506 624.648644,8.21221672 624.711917,7.93966342 C624.776695,7.66865872 624.808332,7.37287645 624.808332,7.04921941 C624.808332,6.73485395 624.776695,6.44062028 624.711917,6.16496978 C624.648644,5.89086789 624.552229,5.65238375 624.424178,5.44951737 C624.29462,5.2481996 624.134932,5.09179117 623.943608,4.9787435 C623.749272,4.86414722 623.521792,4.80839768 623.258157,4.80839768 C622.959873,4.80839768 622.697744,4.86569582 622.471771,4.98338929 C622.248811,5.10108276 622.06502,5.26213698 621.921904,5.46810055 C621.778787,5.67251553 621.671827,5.91099966 621.601022,6.18200436 C621.530217,6.45300906 621.495568,6.74104835 621.495568,7.04921941 C621.495568,7.37287645 621.530217,7.66865872 621.601022,7.93966342 C621.671827,8.21221672 621.780294,8.44605506 621.926423,8.64272704 C622.074059,8.84094762 622.25785,8.99580745 622.477797,9.11040373 C622.699251,9.2234514 622.955353,9.28074954 623.247612,9.28074954 M623.312391,10.0271739 C622.934262,10.0271739 622.605848,9.95593839 622.328655,9.81346735 C622.049955,9.67099631 621.796865,9.43870656 621.569386,9.11659812 L621.548295,9.11659812 L621.548295,9.86302249 L620.682065,9.86302249 L620.682065,2.00543478 L621.548295,2.00543478 L621.548295,4.99422948 L621.569386,4.99422948 C621.775774,4.7015444 622.022838,4.47080326 622.307564,4.30200604 C622.590784,4.13320883 622.938782,4.04958452 623.344027,4.04958452 C623.693532,4.04958452 624.012907,4.11772285 624.300646,4.2524509 C624.589891,4.38872755 624.838461,4.58230233 625.043344,4.83472385 C625.251239,5.08714538 625.410926,5.40151083 625.525419,5.77472301 C625.638406,6.1494838 625.695652,6.57070253 625.695652,7.03837922 C625.695652,7.49366711 625.642925,7.90559426 625.537471,8.27570925 C625.429004,8.64427564 625.272329,8.96018969 625.065941,9.22035421 C624.858046,9.48051872 624.606462,9.6802879 624.311191,9.81966174 C624.01592,9.95748699 623.682986,10.0271739 623.312391,10.0271739" id="Fill-31" fill="#777777"></path>
                <path d="M626.926472,11.0298913 C626.767703,11.0298913 626.63224,11.0241404 626.51717,11.009763 C626.403556,10.9968234 626.288485,10.9651932 626.170501,10.917748 L626.170501,10.1830655 L626.212742,10.1830655 C626.268093,10.2175711 626.342379,10.2448881 626.434144,10.2650163 C626.528822,10.2851446 626.643893,10.2966465 626.780813,10.2966465 C626.959973,10.2966465 627.111459,10.2520767 627.235269,10.1686881 C627.360536,10.082424 627.47415,9.91133356 627.576111,9.65254128 L627.784404,9.13351898 L625.695652,4.01086957 L626.604565,4.01086957 L627.86743,7.29609379 C627.908214,7.41111258 627.948999,7.52900684 627.989783,7.64833884 C628.032024,7.7662331 628.069896,7.87693869 628.104854,7.97901787 C628.145639,8.10266307 628.186423,8.21768186 628.228664,8.32694971 L628.249057,8.32694971 C628.284015,8.21768186 628.321886,8.10266307 628.362671,7.97901787 C628.397629,7.87693869 628.4355,7.7662331 628.476285,7.64833884 C628.518526,7.52900684 628.55931,7.41111258 628.600095,7.29609379 L629.819262,4.01086957 L630.709239,4.01086957 L628.423848,9.71436388 C628.313147,9.98609577 628.205359,10.2075069 628.100484,10.3771597 C627.99124,10.5468124 627.877626,10.6819595 627.758185,10.7797254 C627.637288,10.8789291 627.509108,10.9450649 627.375102,10.9795706 C627.241095,11.0140762 627.091067,11.0298913 626.926472,11.0298913" id="Fill-33" fill="#777777"></path>
                <path d="M598.464974,51.1119464 C598.344157,55.7135609 598.198292,58.6989844 598.028854,60.0652942 C597.956658,60.6658859 597.812267,61.1218096 597.594207,61.431604 C597.424769,61.6727174 597.196395,61.8407662 596.904666,61.9357503 C596.464126,62.1023379 595.177867,62.2703866 593.047363,62.4369742 L593.047363,62.4033644 C590.679644,62.3551417 589.246047,62.2776931 588.750992,62.1695574 C588.255937,62.0614216 587.893486,61.9182148 587.663639,61.7370144 C587.433792,61.5572752 587.270247,61.3015488 587.174478,60.9639899 C586.932844,60.2216526 586.812027,58.6156906 586.812027,56.1461039 L586.702997,49.5644362 L586.702997,35.0713233 C586.702997,34.6168609 586.751618,31.440008 586.847388,25.5422258 C586.872435,23.8164377 586.907796,22.6430187 586.956418,22.0190462 C587.028613,20.8675466 587.14943,20.0901383 587.320342,19.680976 C587.391064,19.4413238 587.523668,19.2425878 587.718154,19.0876907 C587.911167,18.9327935 588.238257,18.7998158 588.696477,18.69168 C589.156171,18.5835443 590.605975,18.4944053 593.047363,18.4228019 L593.047363,18.3891922 C594.072834,18.4651795 595.15724,18.582083 596.36099,18.7822802 C596.941501,18.8772644 597.333419,19.0160873 597.539692,19.1958264 C597.745965,19.3755656 597.89625,19.6327533 597.993493,19.9688509 C598.235127,20.6878075 598.391305,22.9235872 598.464974,26.6747286 C598.537169,30.4287926 598.57253,34.736687 598.57253,39.604257 C598.57253,45.0461155 598.537169,48.882012 598.464974,51.1119464 M695.545854,59.6692835 C695.399989,60.0068424 695.242338,60.2216526 695.072899,60.318098 C694.566057,60.6293536 693.206129,60.8690058 690.994589,61.0370546 C688.783048,61.2051034 686.371129,61.2883971 683.761776,61.2883971 C681.077281,61.2883971 678.756711,61.2167937 676.798591,61.0721257 C676.726396,59.8490227 676.691035,58.3877288 676.691035,56.6853214 L676.691035,41.4381808 C678.213034,41.2935127 680.146106,41.2219093 682.491724,41.2219093 C685.10255,41.2219093 687.241895,41.3534258 688.909759,41.61792 C689.659708,41.7377461 690.178337,42.0373113 690.468593,42.5166157 C690.854618,43.1639689 691.035844,44.8780667 691.012269,47.658909 L694.131411,47.658909 L693.985546,39.7839961 L694.131411,31.872551 L691.194968,31.872551 C691.144873,34.0060401 690.975435,35.5287083 690.686653,36.4390944 C690.565836,36.7985727 690.390504,37.0499153 690.159184,37.1945834 C689.93081,37.3377902 689.16318,37.4225452 687.857767,37.4459259 C684.401222,37.5423713 682.394481,37.5891327 681.839018,37.5891327 C680.050337,37.5891327 678.333851,37.530681 676.691035,37.4093936 L676.691035,30.0371658 C676.691035,25.8666331 676.859,22.4267472 677.197877,19.7175083 C679.446252,19.5494595 681.644532,19.4661658 683.797137,19.4661658 C686.094134,19.4661658 688.436805,19.5976822 690.831044,19.8607151 C692.450286,20.0287639 693.416822,20.2201934 693.732125,20.4364649 C693.925138,20.5796717 694.071002,20.8207852 694.166772,21.1554215 C694.334737,21.8027747 694.44524,23.5417145 694.493862,26.3693182 L697.321274,26.3693182 C697.539334,23.2772203 697.658678,21.5514322 697.683725,21.1904926 L698.373266,16.011667 L698.119845,15.5455143 C697.562908,15.4023075 697.163623,15.3307041 696.921989,15.3307041 C694.264015,15.2342587 692.498908,15.186036 691.628141,15.186036 L684.267145,15.3657751 C680.206515,15.4373785 676.521596,15.4724496 673.207969,15.4724496 C671.685969,15.4724496 670.090301,15.4622205 668.422437,15.4373785 L661.229405,15.2824814 L661.229405,15.2576394 L660.647421,15.270791 L660.010922,15.2576394 L660.010922,15.2854039 L650.423651,15.5104432 C649.52931,15.5104432 647.497522,15.4256882 644.332706,15.2576394 C643.582756,17.224541 642.912369,18.8480385 642.320071,20.1310545 C641.7263,21.4140706 640.102637,24.8364209 637.44319,30.3966441 L632.656185,40.3597459 C631.424441,42.9725394 629.573878,46.6403871 627.108916,51.363289 L615.57826,27.7721603 L613.041103,22.3785245 L609.851239,15.2576394 C607.336183,15.4023075 604.832914,15.4724496 602.344378,15.4724496 C600.591058,15.4724496 597.479284,15.4096139 593.047363,15.2854039 L593.047363,15.2576394 C592.892658,15.2634845 592.730586,15.2664071 592.574408,15.2722523 C592.396129,15.2664071 592.231111,15.2620232 592.046939,15.2576394 L592.046939,15.2883265 C588.398855,15.4096139 584.557758,15.4724496 580.503022,15.4724496 C580.386625,15.4724496 580.282015,15.4709883 580.168565,15.4709883 C580.249601,10.0788138 580.305589,7.2497488 580.333583,7.01301919 C580.402832,5.43774437 580.592898,3.60528182 580.903781,1.51709284 L580.385151,1.00271739 C578.762962,1.17368878 577.15698,1.29351488 575.568679,1.36219569 C572.63371,1.46448626 566.81534,1.51709284 558.112095,1.51709284 L537.185707,1.51709284 C528.72557,1.51709284 523.010337,1.46448626 520.040006,1.36219569 C518.210071,1.29351488 516.483272,1.17368878 514.861083,1.00271739 L514.394022,1.51709284 C514.635656,3.26333905 514.809514,4.88975916 514.912651,6.39635317 C514.946539,7.28774245 515.033468,11.243465 515.171965,18.2635209 L519.471283,18.2635209 C519.540531,15.2839427 519.798372,12.5966232 520.247753,10.1986399 C520.420138,9.20496004 520.627884,8.60582954 520.869518,8.3997871 C521.041904,8.22881572 521.697557,8.09291538 522.837951,7.98916352 C525.669784,7.74951132 528.949524,7.62968522 532.680117,7.62968522 L540.086788,7.62968522 C540.189925,8.62336507 540.241493,6.00911029 540.241493,14.3998598 L540.241493,45.173248 C540.241493,52.5703178 540.051427,57.0053447 539.672769,58.478329 C539.395774,59.4369378 538.869778,60.1222846 538.091834,60.5329082 C537.315364,60.9449931 534.854823,61.218255 530.711684,61.3556167 L530.711684,65.568527 C537.100251,65.260194 542.746236,65.1052968 547.649638,65.1052968 C552.242157,65.1052968 557.888142,65.260194 564.587592,65.568527 L564.587592,61.3556167 C560.44298,61.218255 557.975071,60.9362253 557.179447,60.5080662 C556.385296,60.0799071 555.868141,59.4208635 555.626507,58.5294743 C555.246375,57.0228803 555.056309,52.5703178 555.056309,45.173248 L555.056309,14.3998598 C555.056309,6.21369143 555.107878,8.82794621 555.212487,7.62968522 L562.619159,7.62968522 C566.589913,7.62968522 569.991943,7.76704684 572.823775,8.0403088 C573.721063,8.10898962 574.273579,8.22881572 574.481326,8.3997871 C574.72296,8.6409006 574.946913,9.37593143 575.154659,10.6092635 C575.534791,13.0408565 575.758744,15.5922757 575.827993,18.2635209 L575.891348,18.2635209 L576.268533,24.6201494 L576.218438,24.6143042 C576.233172,24.9240985 576.246433,25.2411993 576.261166,25.5787582 C576.308314,26.945068 576.333362,30.0137851 576.333362,34.7849097 L576.333362,49.8157788 C576.333362,52.2619847 576.236119,54.9230009 576.043106,57.8002886 C575.920816,59.7671902 575.825046,60.8923865 575.752851,61.1817227 C575.704229,61.3965329 575.590779,61.5879624 575.409554,61.7560112 C575.228328,61.92406 574.882084,62.0555764 574.373769,62.1520218 C573.987744,62.2236252 572.536467,62.306919 570.022884,62.4033644 L570.022884,65.568527 C573.069829,65.4238589 576.538161,65.3522555 580.430826,65.3522555 C584.529764,65.3522555 588.394435,65.4150911 592.046939,65.5363785 L592.046939,65.568527 C592.161862,65.5597592 592.30036,65.5553753 592.41823,65.5480689 C592.625976,65.5553753 592.84109,65.5597592 593.047363,65.568527 L593.047363,65.5144591 C595.101252,65.4077846 597.68261,65.3522555 600.85774,65.3522555 C603.686625,65.3522555 606.453629,65.4238589 609.161698,65.568527 L609.161698,62.5115001 C606.720311,62.366832 605.239566,62.2119349 604.719463,62.0424248 C604.199361,61.8758373 603.83691,61.6727174 603.63211,61.431604 C603.425838,61.1919518 603.275553,60.8032476 603.17831,60.2640301 C603.081067,59.7248127 602.989718,57.4218135 602.907208,53.3594165 C602.821753,49.2955581 602.780498,45.7884528 602.780498,42.841023 L602.780498,25.1827475 L612.314727,44.4952077 C613.766005,47.4426375 615.892089,51.9156581 618.695928,57.9069631 C620.341691,61.4082232 621.597009,64.1656848 622.467776,66.1793478 L624.93421,66.1793478 C625.610491,64.6216085 626.541666,62.5714132 627.724788,60.0302231 C629.659334,55.833387 631.157759,52.6346147 632.221538,50.4280609 L636.246807,42.0490017 L644.659796,25.1827475 L644.659796,51.363289 C644.659796,56.4222885 644.568446,59.3945603 644.387221,60.2815657 C644.205995,61.1685711 643.902479,61.7370144 643.481093,61.9898182 C643.05676,62.2411608 641.346169,62.4150547 638.349318,62.5115001 L638.349318,65.568527 L649.661914,65.3522555 L661.229405,65.568527 L661.229405,62.5115001 C658.544911,62.3449126 657.022911,62.2060897 656.66046,62.097954 C656.298009,61.9898182 656.019541,61.8349211 655.826528,61.6303399 C655.633516,61.4272201 655.499438,61.1568807 655.427243,60.8222444 C655.282852,60.1266685 655.11194,58.2562123 654.918927,55.2108758 C654.895353,54.6833487 654.883566,52.8859572 654.883566,49.8157788 L654.883566,37.1945834 L655.064792,27.0897361 C655.089839,26.0580626 655.100153,24.5470847 655.100153,22.5582637 C655.100153,20.8806983 655.427243,19.7467342 656.079949,19.1592941 C656.67372,18.6259218 658.014495,18.348276 660.084591,18.3175888 C662.867802,18.4622569 664.585761,18.6756058 665.2311,18.9620194 C665.472734,19.0818455 665.655433,19.2615846 665.77625,19.5012368 C666.041458,20.1003673 666.210897,21.754552 666.283092,24.4637909 C666.356761,28.5159589 666.393596,30.8540291 666.393596,31.475079 L666.393596,47.658909 C666.393596,49.5293652 666.294879,52.5264789 666.101867,56.648789 C666.006097,58.9035655 665.88528,60.5329082 665.739416,61.541201 C664.821501,62.2601576 663.636905,62.9542722 662.187101,63.6250061 L662.187101,65.568527 C669.679229,65.4238589 673.716284,65.3522555 674.296795,65.3522555 C676.471501,65.3522555 680.436362,65.3887878 686.189903,65.4589299 L692.027427,65.568527 C694.879887,65.568527 697.07964,65.4837719 698.626687,65.3171844 L699.098168,64.8481091 C699.098168,61.7808532 699.363376,57.871892 699.896739,53.1256094 L696.921989,53.1256094 C696.438721,56.3375334 695.9805,58.5192452 695.545854,59.6692835" id="Fill-35" fill="#000000"></path>
                <g id="Group-39" transform="translate(699.896739, 14.038043)">
                    <mask id="mask-2" fill="white">
                        <use xlink:href="#path-1"></use>
                    </mask>
                    <g id="Clip-38"></g>
                    <path d="M37.1092054,30.3044927 C36.6519663,28.8873187 36.0686933,27.7122454 35.3608519,26.7792726 C34.6500796,25.847776 33.694567,25.0255198 32.4928488,24.3095518 C31.2896651,23.5950599 29.7157073,22.9839037 27.7680445,22.4746068 C27.0220999,22.3063174 25.4071078,22.0036917 22.9172062,21.5667298 C20.4287702,21.131244 18.4869694,20.7680932 17.0932694,20.4772773 C15.2657784,19.9930762 13.8823369,19.4601598 12.945876,18.878528 C12.0079496,18.2968962 11.2869186,17.5100694 10.7813177,16.5165715 C10.2757167,15.5245497 10.0119249,14.2284261 9.98847673,12.6296768 C9.98847673,10.4035327 10.8824379,8.45787106 12.6747566,6.7985966 C14.4656099,5.14079837 16.9965457,4.31116114 20.2675641,4.31116114 C22.5493632,4.31116114 24.6128014,4.72302731 26.4520165,5.54675965 C28.2912315,6.36901576 29.5823459,7.31527459 30.3282905,8.37963125 C30.5217378,9.54289484 30.6419096,11.5284145 30.688806,14.3376666 L33.7194807,14.3376666 C33.7912907,11.8679458 33.904135,9.87504497 34.0624101,8.36191658 C34.2177541,6.84731196 34.4639598,5.30318288 34.8010271,3.72952935 L34.5137871,2.85708166 C32.7566406,1.98463397 30.6829439,1.3203337 28.2912315,0.859752174 C25.8995192,0.399170652 23.4286693,0.168879891 20.8801473,0.168879891 C18.4268835,0.168879891 16.0351711,0.441981114 13.7020792,0.986707337 C11.3704527,1.53143356 9.27916988,2.43340571 7.4267652,3.6941 C5.57582602,4.95331807 4.08540232,6.72626168 2.95549408,9.01588329 C1.82558585,11.3040287 1.25989898,13.8047501 1.25989898,16.5165715 C1.25989898,18.4563283 1.57205261,20.2647012 2.1978254,21.9490715 C2.82213267,23.6319655 3.76738664,25.0668541 5.02919078,26.2537372 C6.29246043,27.4406204 7.95581432,28.3484974 10.0251145,28.9788446 C11.3939009,29.3907107 14.2545764,30.0564872 18.6071412,30.976174 C21.6363505,31.6788561 23.752547,32.3579186 24.9557307,33.0104091 C26.1559834,33.6643758 27.0411515,34.5368235 27.6068384,35.626276 C28.1695942,36.7172046 28.4539032,38.0236618 28.4539032,39.5500762 C28.4539032,41.3658303 28.0494224,42.9896754 27.2463229,44.4186591 C26.4402924,45.8461666 25.1418505,46.9666197 23.3495317,47.7785423 C21.5586784,48.5904648 19.5216195,48.9949499 17.2368894,48.9949499 C14.6150919,48.9949499 12.1999314,48.4266041 9.98847673,47.2884363 C7.77555658,46.1487923 6.21332289,44.8305253 5.30031014,43.3277304 C4.98669099,40.7369594 4.85479509,38.5698643 4.90169141,36.8249689 L1.87394768,36.8249689 C1.84903401,42.4685687 1.46507038,46.6698989 0.719125773,49.4319118 C3.48454321,50.7885606 6.02134107,51.7436768 8.32805387,52.3002128 C10.6376977,52.858225 13.2697537,53.1372311 16.2271529,53.1372311 C20.2675641,53.1372311 23.7290988,52.5555993 26.6146881,51.3923357 C28.4172654,50.6660341 30.1729464,49.5706768 31.8802656,48.1062637 C33.5875848,46.6403745 34.9211989,45.0239105 35.8825735,43.2553955 C37.1561017,40.906725 37.7950641,38.1816177 37.7950641,35.0815497 C37.7950641,33.3130348 37.5664445,31.7216666 37.1092054,30.3044927" id="Fill-37" fill="#000000" mask="url(#mask-2)"></path>
                </g>
                <g id="Group-42" transform="translate(54.146739, 14.038043)">
                    <mask id="mask-4" fill="white">
                        <use xlink:href="#path-3"></use>
                    </mask>
                    <g id="Clip-41"></g>
                    <path d="M130.975692,39.2958707 C130.49308,42.5406084 130.03401,44.7446091 129.599953,45.9078727 C129.455758,46.2474039 129.29832,46.4644087 129.129112,46.5618394 C128.621486,46.8762749 127.264875,47.1183754 125.056335,47.288141 C122.847796,47.4579067 120.439149,47.5420514 117.831866,47.5420514 C115.152485,47.5420514 112.835063,47.4697164 110.879601,47.3235704 C110.807503,46.0894481 110.770719,44.6132253 110.770719,42.8934257 L110.770719,27.4890405 C112.292124,27.3428944 114.222573,27.2705595 116.565008,27.2705595 C119.172292,27.2705595 121.308734,27.4034196 122.974334,27.6706159 C123.721795,27.7916662 124.241192,28.0942918 124.531053,28.5784929 C124.916554,29.2324596 125.097534,30.964069 125.073992,33.7733211 L128.187429,33.7733211 L128.043234,25.8179563 L128.187429,17.8256859 L125.254972,17.8256859 C125.206416,19.9809712 125.037207,21.5191954 124.748817,22.4388822 C124.626693,22.802033 124.451599,23.0559433 124.223535,23.2020894 C123.992529,23.3467592 123.227412,23.4323802 121.92377,23.457476 C118.470444,23.5534304 116.467897,23.6006696 115.913188,23.6006696 C114.125462,23.6006696 112.412778,23.5416207 110.770719,23.4190942 L110.770719,15.97155 C110.770719,11.7584101 110.939927,8.28338152 111.278345,5.5464644 C113.523669,5.37669878 115.718966,5.29255408 117.86865,5.29255408 C120.161058,5.29255408 122.503493,5.42541413 124.893012,5.69113424 C126.510058,5.86237609 127.475282,6.05428505 127.788686,6.27276603 C127.982908,6.41891209 128.127103,6.66101264 128.224214,6.99906766 C128.393422,7.65303438 128.500833,9.40973954 128.55086,12.2662307 L131.374436,12.2662307 C131.590729,9.14254321 131.711382,7.39912405 131.736395,7.03449701 L132.423529,1.80423954 L132.170452,1.33184823 C131.615742,1.1871784 131.216998,1.11484348 130.975692,1.11484348 C128.319854,1.01741277 126.558613,0.968697418 125.689028,0.968697418 L118.339491,1.15027283 C114.2829,1.22260774 110.60151,1.25803709 107.295322,1.25803709 C105.773916,1.25803709 104.180413,1.24770353 102.514812,1.22260774 L95.019609,1.06022323 L95.019609,1.04841345 C94.9445687,1.0513659 94.8871849,1.05284212 94.8150873,1.05579457 L94.114711,1.04103234 L94.114711,1.08236658 C92.1798479,1.15617772 90.7805667,1.19308329 89.9860222,1.19308329 C88.9722422,1.19308329 87.3551969,1.14584416 85.1334149,1.04841345 L85.1334149,3.9550962 L79.1949302,12.6013333 L74.4879895,19.4303401 L70.3960851,11.8750317 C69.3337496,9.91313152 68.7304843,8.81186929 68.5862892,8.56976875 C67.2826476,6.31557649 66.3100662,4.72420829 65.6714878,3.79123546 C65.031438,2.85826264 64.4576003,2.14524701 63.951446,1.64775992 C63.4438203,1.15174905 62.7787571,0.64540462 62.0312967,0.15972731 L57.7584127,0.593736821 C48.8962983,1.5104712 45.1442824,1.34808668 44.9265184,1.34808668 C44.105489,1.34808668 41.4113945,1.21817908 37.0428709,1.04841345 L37.0428709,4.06433668 C39.7222516,4.1366716 41.45995,4.37877215 42.2574373,4.79063832 C42.6429385,4.98402351 42.9210291,5.2748394 43.0902377,5.66308601 C43.3550858,6.29343315 43.5242944,8.13280679 43.596392,11.1841594 C43.619934,12.5895235 43.6331764,16.488228 43.6331764,22.881749 L43.6331764,30.2923876 C43.6331764,35.4517864 43.2108907,38.9519107 42.3648479,40.7927606 C41.5202765,42.6336105 40.1018674,44.127548 38.1110919,45.2790018 C36.118845,46.4289793 33.4453498,47.0047063 30.0906061,47.0047063 C27.1699193,47.0047063 24.7612722,46.5751254 22.8661363,45.7159637 C20.9710005,44.8553258 19.5658337,43.7289678 18.6476934,42.3368897 C17.7310244,40.9433353 17.1630722,39.1098666 16.9453081,36.8320548 C16.8496685,35.7913177 16.801113,33.0529243 16.801113,28.6227796 L16.7643285,24.3727341 L16.7643285,15.9435018 C16.7643285,10.8342946 16.9335371,7.52607921 17.2719542,6.02623682 C17.3926073,5.39588967 17.6339134,4.97221372 17.9958726,4.75520897 C18.6962489,4.29462745 20.3500786,4.06433668 22.9573618,4.06433668 L22.9573618,1.04841345 L21.6169357,1.0838428 L16.7290154,1.19308329 L11.8410951,1.26541821 L0.0730076353,1.04841345 L0.0730076353,4.06433668 L4.77994835,4.57363356 C5.26256059,4.93678438 5.56419324,5.25121984 5.6848463,5.51693995 C5.90261036,6.00114103 6.04680548,6.77763424 6.12037442,7.8419909 C6.26456954,10.5538122 6.3366671,13.606641 6.3366671,16.9975249 L6.3366671,26.2253938 L6.30135401,33.1990704 C6.30135401,37.0269162 6.36020917,39.3755867 6.4823336,40.2480344 C6.65007079,41.6533985 7.12091199,43.1119067 7.89338585,44.6250351 C8.66585971,46.1396397 9.78852172,47.506622 11.2613719,48.7304107 C12.734222,49.9541995 14.6293579,50.9285065 16.9453081,51.6548082 C20.1323146,52.6468299 23.5606271,53.144317 27.2302458,53.144317 C30.3672254,53.144317 33.1319461,52.8047857 35.5214652,52.1257232 C37.9109844,51.448137 39.9753288,50.4443054 41.7130271,49.1112762 C43.4521968,47.7797232 44.7970371,46.2902144 45.7519619,44.6427497 C46.7054153,42.9967613 47.3381082,41.0097654 47.6529833,38.6847144 C47.9649156,36.3611397 48.1223531,34.1069474 48.1223531,31.9280425 L48.1223531,23.3910459 C48.1223531,20.8726098 48.2076931,17.4315344 48.3769016,13.0722484 C48.5446388,8.71296236 48.7197329,6.26095625 48.9007125,5.71623003 C49.0596214,5.24088628 49.2656144,4.92349837 49.5069205,4.71535095 C50.0469165,4.32858057 50.5471853,4.42010639 51.1504506,4.70649361 C51.7169315,4.97516617 51.6786756,4.97368995 52.2775268,5.37965122 C52.8440076,5.71327758 54.3668846,7.0787837 55.4056781,8.3143822 C56.9741678,10.1301363 58.5559,12.4079481 60.1494033,15.1448652 L64.9284415,23.3541404 L67.6799199,28.1872939 L62.7566865,34.9070602 C62.1769632,35.6097423 60.9571902,37.2203014 59.0988388,39.7387375 C56.7093197,42.9111404 54.9833924,45.1520466 53.9210569,46.45998 C53.1235696,47.4032864 52.5688598,47.9863944 52.2554561,48.2033992 C52.0862475,48.3244495 51.8684835,48.4218802 51.6036353,48.4927389 C51.2416761,48.5916458 50.1307851,48.7126961 48.2724337,48.8573659 L48.2724337,51.8732891 C49.1640893,51.8245738 50.9635855,51.8009542 53.6665083,51.8009542 C55.0437189,51.8009542 56.6843062,51.8245738 58.5926845,51.8732891 L58.5926845,49.0020357 C60.1361608,46.5086954 61.457459,44.4375548 62.5565789,42.7900901 C63.6556989,41.1441016 64.662122,39.6354019 65.5802623,38.2684196 C66.4969313,36.899961 67.921226,34.8583448 69.8531463,32.1450473 L77.3483498,46.0244943 C78.941853,48.9297008 80.1233702,50.8797912 80.8973154,51.8732891 C83.020515,51.8009542 84.9642064,51.7625724 86.7269182,51.7625724 C87.3301835,51.7625724 90.0949042,51.8009542 95.019609,51.8732891 L95.019609,48.8573659 L94.1868086,48.8573659 C93.8483915,48.8573659 93.3039813,48.7732212 92.5565209,48.6034556 C92.2431172,48.5547402 91.9650266,48.4514046 91.7237205,48.294925 C91.4824144,48.1369692 91.2175662,47.8756777 90.9277046,47.5125269 C90.4200789,46.8349406 89.5755075,45.5639128 88.3925189,43.6979671 C88.1747549,43.3599121 87.5597186,42.3309848 86.5459386,40.6111852 L81.9110954,32.6897735 C81.6447759,32.2542878 80.9090865,30.9360208 79.7025559,28.7320201 C77.9398441,25.558141 76.9496062,23.7660065 76.7333135,23.3541404 L77.6735245,21.973872 L81.8022134,16.3804637 C85.4718321,11.4380697 88.1026573,8.07228166 89.6961605,6.28014715 C90.540732,5.31174497 91.1439973,4.74192296 91.5059564,4.57363356 C92.0488952,4.33300924 93.0744462,4.19719674 94.5325826,4.15291005 C97.1030813,4.29757989 98.7112983,4.50720353 99.3292774,4.7832572 C99.5691122,4.90430747 99.7500918,5.08588288 99.8722162,5.32798342 C100.137064,5.93323478 100.306273,7.60431902 100.37837,10.3412361 C100.450468,14.434802 100.487253,16.7967586 100.487253,17.4256295 L100.487253,33.7733211 C100.487253,35.6628863 100.390142,38.6906193 100.197391,42.8550439 C100.101751,45.1328557 99.9810982,46.7788442 99.8354317,47.7974379 C98.9172914,48.5237395 97.7357742,49.2264216 96.2864661,49.9040079 L96.2864661,51.865908 C103.769899,51.719762 107.801476,51.647427 108.3812,51.647427 C110.554426,51.647427 114.512435,51.6843326 120.258169,51.7551913 L126.087772,51.865908 C128.936361,51.865908 131.13313,51.7802871 132.678077,51.6119977 L133.148919,51.1381302 C133.148919,48.0395385 133.413767,44.0906424 133.944935,39.2958707 L130.975692,39.2958707 Z" id="Fill-40" fill="#000000" mask="url(#mask-4)"></path>
                </g>
                <path d="M284.026106,58.8403392 C282.188743,60.8011207 279.780406,61.780046 276.802559,61.780046 C274.616755,61.780046 273.127832,61.6950495 272.334325,61.5279874 C272.286012,61.0224047 272.262587,60.7102624 272.262587,60.5886294 L272.190849,56.2992368 L272.190849,39.8524131 C273.05463,39.7571584 273.9799,39.7087983 274.965195,39.7087983 C277.751253,39.7087983 279.937057,40.0399916 281.522607,40.7009127 C283.108156,41.3618338 284.380403,42.4990284 285.340809,44.1081002 C286.301216,45.7201029 286.782884,47.8230336 286.782884,50.4198234 C286.782884,54.0746731 285.86347,56.8810233 284.026106,58.8403392 L284.026106,58.8403392 Z M272.190849,30.7651143 L272.262587,25.1743959 C272.286012,22.9146613 272.370926,20.9187088 272.514401,19.1880041 C273.788111,18.9974947 275.205297,18.8993091 276.765958,18.8993091 C278.928337,18.8993091 280.549024,19.158695 281.629481,19.6745359 C282.711403,20.1918422 283.58836,21.0579273 284.260352,22.2713256 C284.932344,23.4861895 285.269072,24.9589737 285.269072,26.6896784 C285.269072,28.3969358 284.974801,29.9063565 284.386259,31.2150096 C283.797717,32.5265936 283.071556,33.5128462 282.206311,34.1723018 C281.342531,34.8346884 280.212296,35.2977728 278.819999,35.561555 C277.426238,35.8268027 275.912426,35.9586939 274.280027,35.9586939 L272.190849,35.9220575 L272.190849,30.7651143 Z M292.132467,39.4552742 C290.415154,38.5906546 287.371426,37.8930971 282.999818,37.3655326 C286.649656,36.3543673 289.003824,35.5483659 290.060857,34.9475286 C291.838196,33.9627415 293.297838,32.5808155 294.438321,30.8002853 C295.578804,29.0212205 296.149778,27.0985409 296.149778,25.0307811 C296.149778,23.1066361 295.650542,21.3700696 294.654998,19.8196161 C293.657991,18.2676972 292.084153,17.0850734 289.93495,16.2673484 C287.784283,15.4510888 284.728843,15.0407609 280.765701,15.0407609 C279.708668,15.0407609 277.451126,15.1125683 273.991612,15.2576485 C272.62274,15.3060086 270.737063,15.3294559 268.336046,15.3294559 C265.908676,15.3294559 263.879524,15.3177322 262.247125,15.2928195 L257.275264,15.1492047 C256.919503,15.1345501 256.588631,15.1316192 256.251903,15.1257574 L256.251903,15.1125683 L255.948848,15.1198955 C255.841974,15.1184301 255.723387,15.1125683 255.617976,15.1125683 L255.617976,15.1272228 L245.514672,15.3660923 C244.626003,15.3660923 242.608564,15.2810958 239.462353,15.1125683 C238.717159,17.0850734 238.051023,18.7131961 237.462481,19.9998673 C236.873939,21.2865385 235.257645,24.7186388 232.616526,30.2947026 L227.861342,40.2861884 C226.635945,42.9064254 224.798581,46.5861879 222.349251,51.3210795 L210.890251,27.6642073 L208.369183,22.2537402 L205.198084,15.1125683 C202.700441,15.2576485 200.21451,15.3294559 197.740291,15.3294559 C195.867791,15.3294559 192.45659,15.2576485 187.508152,15.1125683 L187.508152,18.1783043 C188.780398,18.2266644 190.21076,18.3834683 191.794846,18.6472505 C192.371676,18.7439707 192.762573,18.8817236 192.966074,19.0619748 C193.169575,19.242226 193.32037,19.5001465 193.416996,19.8372016 C193.657098,20.5582064 193.81375,22.8003556 193.885487,26.5636491 C193.957225,30.3269427 193.993826,34.6471099 193.993826,39.5285471 C193.993826,44.9859089 193.957225,48.8327335 193.885487,51.0690209 C193.765437,55.6852104 193.620497,58.679139 193.453597,60.0478758 C193.380396,60.6501786 193.23692,61.1074012 193.020243,61.4195435 C192.853343,61.6598785 192.624954,61.828406 192.336539,61.9236607 C191.831447,62.1156356 190.222473,62.3090759 187.508152,62.5010508 L187.508152,65.5667868 C189.670531,65.4217066 192.588353,65.3498992 196.26308,65.3498992 C199.074027,65.3498992 201.823484,65.4217066 204.51438,65.5667868 L204.51438,62.5010508 C202.08701,62.3559706 200.617119,62.2006321 200.100315,62.0321046 C199.583511,61.863577 199.223358,61.6598785 199.019857,61.4195435 C198.814892,61.1792086 198.664097,60.7879316 198.568935,60.2471779 C198.472308,59.7064243 198.383002,57.3983296 198.299552,53.3228937 C198.214638,49.2474578 198.172181,45.7318265 198.172181,42.7745343 L198.172181,25.0659521 L207.648878,44.4334316 C209.089488,47.3907238 211.203554,51.8750222 213.989612,57.8848613 C215.622011,61.3946308 216.872297,64.1599481 217.736077,66.1793478 L220.186872,66.1793478 C220.858863,64.6171707 221.784133,62.5611345 222.961217,60.0127048 C224.882031,55.8053778 226.370954,52.596027 227.427987,50.383187 L231.42773,41.9802566 L239.785905,25.0659521 L239.785905,51.3210795 C239.785905,56.3944915 239.696598,59.375231 239.516522,60.2662289 C239.336446,61.1542958 239.036319,61.725824 238.614677,61.9793481 C238.194499,62.2299413 236.494754,62.4057961 233.516908,62.5010508 L233.516908,65.5667868 L244.757767,65.3498992 L256.251903,65.5667868 L256.251903,62.5010508 C253.585896,62.3339887 252.072084,62.1947703 251.711932,62.0863265 C251.351779,61.9793481 251.075076,61.8225442 250.883288,61.6188457 C250.690035,61.4136817 250.559736,61.1425722 250.486534,60.8069825 C250.343059,60.109425 250.174695,58.2336401 249.982907,55.1796277 C249.958018,54.6520632 249.946306,52.8480856 249.946306,49.770626 L249.946306,37.1120085 L250.126382,26.9783735 C250.149806,25.9452263 250.162983,24.4299438 250.162983,22.4339914 C250.162983,20.7516467 250.486534,19.6144521 251.135102,19.0253384 C251.783669,18.4376902 253.320906,18.154857 255.746811,18.1783043 L256.251903,18.1783043 L256.251903,18.1489951 C258.954511,18.3380391 260.553237,18.5871668 261.021728,18.8993091 C261.26183,19.0443894 261.441906,19.296448 261.561957,19.6569504 C261.753746,20.2343404 261.885509,22.5409697 261.958711,26.5812346 C262.078761,31.8217088 262.138787,35.6817225 262.138787,38.1583448 C262.138787,47.4141711 262.090474,53.7991672 261.993847,57.3074712 C261.945534,59.0147286 261.850372,60.4582038 261.705433,61.6349657 C260.865077,62.3808833 259.808044,63.1268009 258.535797,63.8727185 L258.535797,65.5667868 C261.682008,65.4217066 264.227964,65.3498992 266.173667,65.3498992 L278.27977,65.5667868 C281.522607,65.5667868 284.223751,65.1637861 286.38613,64.3592503 C288.547046,63.5532489 290.462003,62.4658798 292.132467,61.0942121 C293.801466,59.7254753 295.164483,58.0724398 296.221516,56.1351056 C297.278549,54.2007024 297.807065,52.0420843 297.807065,49.6621821 C297.807065,47.4024475 297.290261,45.3522732 296.258116,43.5131246 C295.224508,41.6739761 293.849779,40.3213593 292.132467,39.4552742 L292.132467,39.4552742 Z" id="Fill-43" fill="#000000"></path>
                <path d="M340.716992,53.4772735 C339.348479,56.951978 337.458838,59.4180407 335.049546,60.8754616 C332.638778,62.3328824 329.909133,63.063074 326.856183,63.063074 C323.562598,63.063074 320.704517,62.2973356 318.283415,60.7673399 C315.860837,59.2358631 313.873761,56.6172452 312.325142,52.9114861 C310.77357,49.205727 309.998522,44.5224295 309.998522,38.8615937 C309.998522,34.92478 310.562461,31.3286237 311.688864,28.0716436 C312.815267,24.8146635 314.619284,22.3545252 317.10239,20.6897478 C319.584019,19.0264514 322.594158,18.1940627 326.129852,18.1940627 C329.230044,18.1940627 331.719055,18.7168976 333.595409,19.7610863 C335.473239,20.805275 337.101578,22.3189784 338.481901,24.2992342 C339.862225,26.280971 340.922195,28.6803834 341.661812,31.4974713 C342.399953,34.3160402 342.769024,37.4278707 342.769024,40.8285194 C342.769024,45.7873049 342.084029,50.0025689 340.716992,53.4772735 M350.726182,25.4841292 C349.660307,23.6134762 348.10283,21.7842945 346.056703,19.9980653 C344.010577,18.2118361 341.654431,16.8462446 338.991219,15.8983286 C335.406807,14.6586322 331.410512,14.0380435 327.002335,14.0380435 C322.570537,14.0380435 318.476808,14.6838113 314.722623,15.9709034 C311.792204,16.9913943 309.078798,18.6561717 306.583882,20.9637547 C304.088966,23.2728189 302.1698,26.0795389 300.826383,29.3839148 C299.481491,32.6897719 298.809783,36.5643785 298.809783,41.010697 C298.809783,46.7707678 299.922899,51.5814415 302.152084,55.4456803 C304.379794,59.3099191 307.45046,62.2306852 311.36113,64.210941 C315.273276,66.1911968 319.954566,67.1820652 325.403522,67.1820652 C330.440595,67.1820652 334.922586,66.3674499 338.845067,64.7397004 C341.703148,63.525183 344.252687,61.7863496 346.493682,59.5276435 C348.733202,57.2689374 350.435355,54.6799419 351.597188,51.7636191 C353.172381,47.8519845 353.959239,43.6115415 353.959239,39.0437713 C353.959239,36.346654 353.686127,33.8805913 353.141379,31.644102 C352.596631,29.4090938 351.790581,27.3547821 350.726182,25.4841292" id="Fill-45" fill="#000000"></path>
                <path d="M445.742784,61.6992534 C445.332363,61.262517 444.221724,59.8342711 442.410869,57.4145156 C442.290243,57.2448377 441.48264,56.0349599 439.986587,53.7834069 L434.374553,45.3231155 C434.23039,45.1047473 434.090641,44.8760509 433.958247,44.6340754 C433.825853,44.3920998 433.374243,43.7015842 432.600473,42.5625286 C431.828175,41.4264239 431.141197,40.3124511 430.538069,39.2235611 C434.303943,37.8189226 437.090101,35.9185292 438.900957,33.5223811 C440.710341,31.1247576 441.615034,28.464502 441.615034,25.5342371 C441.615034,23.064316 440.951593,20.9706373 439.62471,19.2517256 C438.296357,17.5328139 436.692919,16.4026111 434.808511,15.8581661 C432.927045,15.3137211 430.090871,15.0407609 426.301461,15.0407609 C424.347914,15.0407609 421.872146,15.1012548 418.880042,15.2222425 C417.070657,15.3181475 414.897924,15.3683131 412.364786,15.3683131 C409.396218,15.3683131 407.10286,15.3432303 405.486182,15.2945401 C404.833038,15.2753591 404.251976,15.2576536 403.707689,15.242899 L403.707689,15.1130584 L401.276053,15.1779787 C400.478747,15.1587977 399.941815,15.1484695 399.693209,15.1484695 L399.693209,15.2207671 L395.671373,15.3299512 C395.235944,15.355034 394.909372,15.3683131 394.693129,15.3683131 C393.872286,15.3683131 391.278835,15.2827364 386.909832,15.1130584 L386.909832,18.1274246 C389.588604,18.1997221 391.327379,18.4416977 392.123214,18.8533512 C392.508628,19.0466366 392.786655,19.3373023 392.955825,19.7253485 C393.220613,20.3553702 393.389783,22.1937942 393.461864,25.2435713 C393.486872,26.6482099 393.498641,30.5449015 393.498641,36.9351216 L393.498641,44.3419342 C393.498641,49.4986692 393.07498,52.9969864 392.232071,54.8368859 C391.386221,56.6767853 389.969605,58.1699515 387.977811,59.3208108 C385.987488,60.4701947 383.3146,61.0456243 379.959147,61.0456243 C377.039124,61.0456243 374.631024,60.6162653 372.736319,59.7575472 C370.841614,58.8973536 369.436766,57.7715771 368.520306,56.3802177 C367.602374,54.9873828 367.034551,53.1548607 366.818307,50.8782249 C366.721218,49.8380251 366.672674,47.1010456 366.672674,42.6717127 L366.637369,38.4253369 L366.637369,30.0004565 C366.637369,24.8938872 366.806539,21.5873798 367.143408,20.0883118 C367.264034,19.4582901 367.505285,19.0348329 367.868633,18.8179402 C368.567379,18.3575964 370.220833,18.1274246 372.827524,18.1274246 L372.827524,15.1130584 L371.487402,15.1484695 L366.600593,15.2576536 L361.713783,15.3299512 L349.94837,15.1130584 L349.94837,18.1274246 L354.654241,18.634983 C355.136743,18.9994218 355.438307,19.3122195 355.558933,19.5792779 C355.776648,20.063229 355.92081,20.8393213 355.992891,21.9031284 C356.138525,24.6135496 356.212077,27.6648023 356.212077,31.05246 L356.212077,40.2755646 L356.17383,47.2471162 C356.17383,51.0729857 356.234143,53.4204436 356.354768,54.2909654 C356.525409,55.6970794 356.994672,57.1548346 357.766971,58.6671817 C358.54074,60.1810044 359.661676,61.5472809 361.134192,62.7704378 C362.605236,63.9935947 364.499941,64.9673988 366.818307,65.6933254 C370.00459,66.684835 373.430652,67.1820652 377.099437,67.1820652 C380.237175,67.1820652 383.001267,66.8427093 385.390244,66.1639974 C387.77922,65.4867609 389.841624,64.4834477 391.580399,63.1511067 C393.317702,61.8202412 394.662237,60.3315014 395.616945,58.6848873 C396.56871,57.0397486 397.202731,55.0537786 397.517534,52.729928 C397.830866,50.4075529 397.986797,48.1545245 397.986797,45.9767446 L397.986797,37.4441556 C397.986797,34.9255442 398.072118,31.4877209 398.241288,27.1306855 C398.408987,22.7736502 398.584041,20.32291 398.76498,19.7784651 C398.945918,19.2340201 399.182756,18.8651549 399.472552,18.6718696 C399.79324,18.4697314 400.397839,18.3295627 401.23045,18.241035 C403.297268,18.4121885 404.581489,18.6158021 405.052224,18.8533512 C405.293475,18.9994218 405.474413,19.2045109 405.595039,19.4700938 C405.83629,20.0750326 405.981924,21.8913247 406.028997,24.9160191 L406.174631,32.5780863 L406.174631,46.0505176 L405.884835,56.6517025 C405.811283,58.5638995 405.690657,59.9921454 405.522958,60.9364402 C405.449406,61.4439987 405.347904,61.7848301 405.214039,61.9530326 C405.081645,62.1227106 404.871285,62.2436984 404.581489,62.315996 C404.07545,62.4856739 402.445533,62.6184654 399.693209,62.7143703 L399.693209,65.9102181 C402.904499,65.765623 406.390874,65.6933254 410.156748,65.6933254 C414.380117,65.6933254 418.556412,65.765623 422.68122,65.9102181 L422.68122,62.7143703 C420.365796,62.6671556 418.965362,62.594858 418.48286,62.4974776 C418.000357,62.4015727 417.650248,62.2746831 417.432534,62.1168088 C417.214819,61.9604099 417.058889,61.7848301 416.963271,61.5900693 C416.769093,61.1784158 416.636699,60.2960903 416.564618,58.940142 C416.516073,58.2614301 416.442521,55.430021 416.346903,50.442964 C416.274822,46.375119 416.238046,42.5271175 416.238046,38.8960089 C416.238046,36.5957657 416.310127,32.0218376 416.45576,25.1712738 C416.527841,22.1214966 416.599923,20.1606094 416.672004,19.2886121 C417.80765,19.0953268 418.953594,18.9994218 420.111306,18.9994218 C422.719468,18.9994218 424.528852,19.1809035 425.542402,19.5438668 C427.110535,20.1237229 428.42712,21.1535944 429.487743,22.6305305 C430.549837,24.1059912 431.080884,25.9576943 431.080884,28.1841645 C431.080884,30.3870272 430.573374,32.3788991 429.559824,34.1583047 C428.547746,35.9362348 427.303242,37.1711953 425.832198,37.8617109 C424.359682,38.5522265 422.175181,38.8487941 419.280166,38.7499383 L418.880042,39.9494878 C419.603795,40.4821291 420.352557,41.2803533 421.126326,42.3456359 C422.669452,44.4525937 424.552389,47.3444966 426.772195,51.0242955 L434.520186,63.8416223 C434.979152,64.6885367 435.267477,65.3790523 435.389573,65.9102181 C437.296047,65.8143132 439.214289,65.765623 441.144299,65.765623 C442.810993,65.765623 445.501533,65.8143132 449.217391,65.9102181 L449.217391,62.8973275 C448.083216,62.8737201 447.322686,62.7763397 446.937272,62.6066617 C446.550388,62.4369837 446.151735,62.1345143 445.742784,61.6992534" id="Fill-47" fill="#000000"></path>
                <path d="M485.413349,45.4940434 L474.556849,45.3474127 L474.556849,48.3007634 C478.308001,48.519969 480.607094,48.7495424 481.455604,48.9924459 C481.963234,49.1138976 482.290833,49.3212543 482.435448,49.6130346 C482.628761,50.0499647 482.727631,51.4362918 482.727631,53.7675727 C482.727631,54.157107 482.702545,55.2872006 482.653848,57.1578535 C482.60515,59.0299876 482.546124,60.2919008 482.47234,60.9495175 C480.995195,61.604172 479.487061,62.103309 477.950889,62.4424852 C476.413241,62.7831425 474.834275,62.9534712 473.211039,62.9534712 C467.643338,62.9534712 462.940379,60.8325092 459.103639,56.5920662 C455.265423,52.3531043 453.348528,46.635986 453.348528,39.4436733 C453.348528,32.8586194 455.169504,27.6835905 458.812932,23.9171055 C462.45636,20.1506205 467.30541,18.2666375 473.35713,18.2666375 C475.94693,18.2666375 478.271109,18.5702668 480.329668,19.1775255 C482.386751,19.7862653 484.2033,20.6230974 485.776364,21.6924652 C486.478783,22.1545742 487.132504,22.7499839 487.737529,23.4786944 C487.907231,24.2325838 488.028236,25.1434718 488.100543,26.2113585 C488.197938,27.7443164 488.246635,28.8981079 488.246635,29.6742141 L491.152228,29.6742141 C491.636247,24.2562817 492.168964,20.4779478 492.750378,18.3392123 L492.458195,17.6460487 C490.47342,16.7484908 487.708015,15.9220265 484.160506,15.1681371 C480.614472,14.4157288 476.782159,14.0380435 472.666517,14.0380435 C469.327077,14.0380435 466.257684,14.3238994 463.461291,14.8956112 C460.664897,15.4673231 457.989508,16.4137579 455.4366,17.7378781 C452.880741,19.0619983 450.599356,20.7875016 448.59097,22.9143881 C446.581108,25.0397935 445.012471,27.5236297 443.886535,30.3673777 C442.762075,33.2111257 442.19837,36.5391995 442.19837,40.3545614 C442.19837,44.8749358 443.058685,48.9805969 444.77784,52.6745071 C445.866884,55.056146 447.451753,57.2793053 449.535398,59.3454659 C451.616092,61.4101455 454.121779,63.100102 457.050983,64.410892 C461.238932,66.2578471 466.058469,67.1820652 471.505165,67.1820652 C474.84608,67.1820652 478.192899,66.8414079 481.547095,66.1600933 C484.898341,65.4802598 488.826573,64.3146193 493.330316,62.6616908 C493.113393,60.7169819 493.004193,58.822631 493.004193,56.9756759 C493.004193,55.7611586 493.064696,53.7557238 493.1857,50.9608527 C493.234397,49.8677871 493.367208,49.1998025 493.584131,48.956899 C494.020929,48.4459131 494.940271,48.046011 496.345109,47.7527495 L496.345109,45.3474127 L485.413349,45.4940434 Z" id="Fill-49" fill="#000000"></path>
                <g id="Group-53">
                    <mask id="mask-6" fill="white">
                        <use xlink:href="#path-5"></use>
                    </mask>
                    <g id="Clip-52"></g>
                    <path d="M51.4762871,55.9521797 C51.1642164,56.9942211 50.8698938,57.6375297 50.5918403,57.8806233 C50.3137867,58.1237168 49.4663151,58.3490231 48.0449882,58.5580243 C44.1270956,59.1835455 39.5347753,59.4963062 34.2650693,59.4963062 C32.5316717,59.4963062 29.2734168,59.3910644 24.4903044,59.1835455 C24.4548082,58.1415042 24.4296651,55.179913 24.411917,50.2987719 C24.3941689,45.4176308 24.3675467,40.4920214 24.3335295,35.5249082 C24.2995123,26.1094791 24.2817642,21.0890039 24.2817642,20.464965 C24.2817642,14.6277547 24.3601517,17.2098827 24.5154475,13.3885703 C24.6722224,9.56725796 24.8363923,7.42240187 25.0094362,6.95251978 C25.1839592,6.48411997 25.4605337,6.14467833 25.8421178,5.93715943 C26.7073376,5.48506467 29.1003728,5.17230404 33.0182654,4.99887753 L33.0182654,0.412709759 C27.3669752,0.62171094 21.3873453,0.725470392 15.0793755,0.725470392 C9.42808537,0.725470392 4.40093666,0.62171094 -0.000591603261,0.412709759 L-0.000591603261,4.99887753 C4.50594624,5.17230404 7.15780785,5.52063934 7.95499325,6.04091888 C8.33657735,6.24992006 8.59688279,6.56268069 8.73590955,6.97920078 C9.04798027,7.91748268 9.27278951,11.6513407 9.41181628,18.1837393 C9.47985065,20.7540091 9.51534685,20.1166297 9.51534685,31.0943797 C9.51534685,38.5650602 9.44583346,44.9655361 9.3068067,50.2987719 C9.16925894,55.6305254 9.01248408,58.7314508 8.83944012,59.6000656 C8.80394393,59.8090668 8.71668245,59.9987984 8.57913469,60.1737072 C8.37059454,60.4508931 7.90322796,60.7992284 7.17555595,61.2157485 C5.54568897,62.1881228 4.281137,62.8655238 3.37894202,63.2479515 L3.37894202,65.9056757 C10.3125322,65.5929151 15.4772287,65.4357936 18.8745104,65.4357936 C21.1270399,65.4357936 25.1144458,65.5054607 30.8337704,65.6447948 C38.3545268,65.8182213 42.4291943,65.9056757 43.0533357,65.9056757 C47.4903602,65.9056757 50.7663632,65.8182213 52.8798659,65.6447948 C53.8855914,65.5410354 54.8898379,65.3498215 55.8955635,65.0711533 C55.9295807,64.4115396 56.0863555,62.4312164 56.3644091,59.1316658 L57.6644572,48.6045283 C57.6644572,48.4311018 57.7162225,47.8574602 57.8197531,46.8850859 L53.5040073,46.8850859 C52.8458487,50.2898782 52.169942,53.3122428 51.4762871,55.9521797" id="Fill-51" fill="#000000" mask="url(#mask-6)"></path>
                </g>
            </g>
        </g>
    </g>
</svg>