<svg xmlns="http://www.w3.org/2000/svg" width="20" height="18" viewBox="0 0 20 18">
  <g fill="none">
    <path fill="#2FFC8D" d="M13.5051546,0.0206185567 C13.4020619,-0.0274914089 13.3195876,0.0206185567 13.3195876,0.137457045 L13.3195876,14.0824742 L19.4295533,17.1340206 C19.7319588,17.2852234 19.9793814,17.1340206 19.9793814,16.790378 L19.9793814,3.36769759 C19.9793814,3.29896907 19.9450172,3.2371134 19.8831615,3.20962199 L13.5051546,0.0206185567 Z"/>
    <path fill="#03E370" d="M6.65979381,10.7560137 L13.209622,0.109965636 C13.2714777,0.0137457045 13.4020619,-0.0274914089 13.5051546,0.0274914089 L19.8350515,3.18900344 C19.9106529,3.23024055 19.9450172,3.32646048 19.8969072,3.40206186 L13.3195876,14.0824742 L6.65979381,10.7560137 Z"/>
    <path fill="#10C767" d="M0.735395189,0.302405498 C0.329896907,0.0962199313 0.192439863,0.24742268 0.432989691,0.639175258 L6.65979381,10.7560137 L13.3195876,14.0893471 L6.70103093,3.33333333 C6.67353952,3.28522337 6.63230241,3.25085911 6.58419244,3.2233677 L0.735395189,0.302405498 Z"/>
    <path fill="#00AB6C" d="M6.65979381,16.7972509 C6.65979381,17.1340206 6.41237113,17.2920962 6.10996564,17.1408935 L0.371134021,14.2680412 C0.164948454,14.1649485 0,13.8969072 0,13.6701031 L0,0.343642612 C0,0.116838488 0.164948454,0.0137457045 0.371134021,0.116838488 L6.57731959,3.2233677 C6.62542955,3.25085911 6.65979381,3.29896907 6.65979381,3.35395189 L6.65979381,16.7972509 Z"/>
  </g>
</svg>
