<?xml version="1.0" encoding="UTF-8"?>
<svg width="132px" height="19px" viewBox="0 0 132 19" version="1.1" xmlns="http://www.w3.org/2000/svg" xmlns:xlink="http://www.w3.org/1999/xlink">
    <!-- Generator: Sketch 48.2 (47327) - http://www.bohemiancoding.com/sketch -->
    <title>Rating</title>
    <desc>Created with Sketch.</desc>
    <defs></defs>
    <g id="Artboard-3" stroke="none" stroke-width="1" fill="none" fill-rule="evenodd" transform="translate(-487.000000, -4693.000000)">
        <g id="Reviews" transform="translate(0.000000, 4142.000000)" fill="#FFE165" fill-rule="nonzero">
            <g id="Review" transform="translate(156.000000, 253.000000)">
                <g id="Rating" transform="translate(331.000000, 298.000000)">
                    <path d="M10.4728868,0.312955146 L13.0168626,6.31126211 L19.5297691,6.86864955 C19.9814839,6.90751326 20.1652497,7.46899161 19.8223571,7.76456036 L14.8822395,12.0283185 L16.3626322,18.3712853 C16.4652947,18.8120816 15.985861,19.1587868 15.5977969,18.9245818 L10.0006395,15.5618481 L4.40348215,18.9245818 C4.01439142,19.157764 3.53598436,18.8110588 3.63864682,18.3712853 L5.1190395,12.0283185 L0.177895267,7.76353763 C-0.164997352,7.46796888 0.017741828,6.90649053 0.47048328,6.86762682 L6.98338979,6.31023938 L9.52736557,0.312955146 C9.703945,-0.104318382 10.2963074,-0.104318382 10.4728868,0.312955146 Z" id="Shape"></path>
                    <path d="M38.4728868,0.312955146 L41.0168626,6.31126211 L47.5297691,6.86864955 C47.9814839,6.90751326 48.1652497,7.46899161 47.8223571,7.76456036 L42.8822395,12.0283185 L44.3626322,18.3712853 C44.4652947,18.8120816 43.985861,19.1587868 43.5977969,18.9245818 L38.0006395,15.5618481 L32.4034822,18.9245818 C32.0143914,19.157764 31.5359844,18.8110588 31.6386468,18.3712853 L33.1190395,12.0283185 L28.1778953,7.76353763 C27.8350026,7.46796888 28.0177418,6.90649053 28.4704833,6.86762682 L34.9833898,6.31023938 L37.5273656,0.312955146 C37.703945,-0.104318382 38.2963074,-0.104318382 38.4728868,0.312955146 Z" id="Shape-Copy"></path>
                    <path d="M66.4728868,0.312955146 L69.0168626,6.31126211 L75.5297691,6.86864955 C75.9814839,6.90751326 76.1652497,7.46899161 75.8223571,7.76456036 L70.8822395,12.0283185 L72.3626322,18.3712853 C72.4652947,18.8120816 71.985861,19.1587868 71.5977969,18.9245818 L66.0006395,15.5618481 L60.4034822,18.9245818 C60.0143914,19.157764 59.5359844,18.8110588 59.6386468,18.3712853 L61.1190395,12.0283185 L56.1778953,7.76353763 C55.8350026,7.46796888 56.0177418,6.90649053 56.4704833,6.86762682 L62.9833898,6.31023938 L65.5273656,0.312955146 C65.703945,-0.104318382 66.2963074,-0.104318382 66.4728868,0.312955146 Z" id="Shape-Copy-2"></path>
                    <path d="M94.4728868,0.312955146 L97.0168626,6.31126211 L103.529769,6.86864955 C103.981484,6.90751326 104.16525,7.46899161 103.822357,7.76456036 L98.8822395,12.0283185 L100.362632,18.3712853 C100.465295,18.8120816 99.985861,19.1587868 99.5977969,18.9245818 L94.0006395,15.5618481 L88.4034822,18.9245818 C88.0143914,19.157764 87.5359844,18.8110588 87.6386468,18.3712853 L89.1190395,12.0283185 L84.1778953,7.76353763 C83.8350026,7.46796888 84.0177418,6.90649053 84.4704833,6.86762682 L90.9833898,6.31023938 L93.5273656,0.312955146 C93.703945,-0.104318382 94.2963074,-0.104318382 94.4728868,0.312955146 Z" id="Shape-Copy-3"></path>
                    <path d="M122.472887,0.312955146 L125.016863,6.31126211 L131.529769,6.86864955 C131.981484,6.90751326 132.16525,7.46899161 131.822357,7.76456036 L126.88224,12.0283185 L128.362632,18.3712853 C128.465295,18.8120816 127.985861,19.1587868 127.597797,18.9245818 L122.00064,15.5618481 L116.403482,18.9245818 C116.014391,19.157764 115.535984,18.8110588 115.638647,18.3712853 L117.11904,12.0283185 L112.177895,7.76353763 C111.835003,7.46796888 112.017742,6.90649053 112.470483,6.86762682 L118.98339,6.31023938 L121.527366,0.312955146 C121.703945,-0.104318382 122.296307,-0.104318382 122.472887,0.312955146 Z" id="Shape-Copy-4"></path>
                </g>
            </g>
        </g>
    </g>
</svg>